<svg width="40" height="40" viewBox="0 0 40 40" fill="none" xmlns="http://www.w3.org/2000/svg">
<path d="M26.5274 7.00541L23.1559 7C19.368 7 16.9201 9.51144 16.9201 13.3986V16.3487H13.5301C13.2372 16.3487 13 16.5862 13 16.8792V21.1536C13 21.4465 13.2375 21.6838 13.5301 21.6838H16.9201V32.4696C16.9201 32.7625 17.1573 32.9997 17.4503 32.9997H21.8732C22.1662 32.9997 22.4034 32.7622 22.4034 32.4696V21.6838H26.367C26.66 21.6838 26.8972 21.4465 26.8972 21.1536L26.8988 16.8792C26.8988 16.7385 26.8428 16.6038 26.7436 16.5043C26.6443 16.4047 26.509 16.3487 26.3684 16.3487H22.4034V13.8478C22.4034 12.6458 22.6898 12.0356 24.2556 12.0356L26.5269 12.0348C26.8196 12.0348 27.0568 11.7973 27.0568 11.5046V7.53556C27.0568 7.24317 26.8198 7.00595 26.5274 7.00541Z" fill="black"/>
</svg>
