<svg width="28" height="28" viewBox="0 0 28 28" fill="none" xmlns="http://www.w3.org/2000/svg">
<g clip-path="url(#clip0_189_10)">
<path fill-rule="evenodd" clip-rule="evenodd" d="M13.9984 0C6.27338 0 0 6.27594 0 14C0 21.7241 6.27338 28 13.9984 28C21.7234 28 28 21.7242 28 14C28 6.27575 21.7234 0 13.9984 0ZM13.9984 1.27263C21.0357 1.27263 26.7274 6.96366 26.7274 14C26.7274 21.0363 21.0357 26.7275 13.9984 26.7275C6.96112 26.7275 1.27253 21.0365 1.27253 14C1.27253 6.96348 6.96112 1.27263 13.9984 1.27263Z" fill="black"/>
<path fill-rule="evenodd" clip-rule="evenodd" d="M9.24659 8.24816C9.16235 8.24709 9.07873 8.26276 9.0006 8.29426C8.92246 8.32576 8.85136 8.37247 8.79141 8.43166C8.73147 8.49085 8.68387 8.56136 8.65139 8.63909C8.6189 8.71682 8.60217 8.80024 8.60217 8.88448C8.60217 8.96873 8.6189 9.05213 8.65139 9.12986C8.68387 9.20759 8.73147 9.27809 8.79141 9.33729C8.85136 9.39648 8.92246 9.44319 9.0006 9.47469C9.07873 9.50619 9.16235 9.52185 9.24659 9.52079H18.7502C18.8344 9.52185 18.918 9.50619 18.9962 9.47469C19.0743 9.44319 19.1454 9.39648 19.2054 9.33729C19.2653 9.27809 19.3129 9.20759 19.3454 9.12986C19.3779 9.05213 19.3946 8.96873 19.3946 8.88448C19.3946 8.80024 19.3779 8.71682 19.3454 8.63909C19.3129 8.56136 19.2653 8.49085 19.2054 8.43166C19.1454 8.37247 19.0743 8.32576 18.9962 8.29426C18.918 8.26276 18.8344 8.24709 18.7502 8.24816H9.24659Z" fill="black"/>
<path fill-rule="evenodd" clip-rule="evenodd" d="M7.6626 13.3637C7.57837 13.3627 7.49477 13.3784 7.41665 13.4099C7.33853 13.4414 7.26744 13.4881 7.20751 13.5473C7.14757 13.6065 7.09999 13.677 7.06751 13.7547C7.03503 13.8324 7.01831 13.9158 7.01831 14.0001C7.01831 14.0843 7.03503 14.1677 7.06751 14.2454C7.09999 14.3231 7.14757 14.3936 7.20751 14.4528C7.26744 14.512 7.33853 14.5587 7.41665 14.5902C7.49477 14.6217 7.57837 14.6374 7.6626 14.6364H20.3341C20.4183 14.6374 20.5019 14.6217 20.58 14.5902C20.6582 14.5587 20.7292 14.512 20.7892 14.4528C20.8491 14.3936 20.8967 14.3231 20.9292 14.2454C20.9617 14.1677 20.9784 14.0843 20.9784 14.0001C20.9784 13.9158 20.9617 13.8324 20.9292 13.7547C20.8967 13.677 20.8491 13.6065 20.7892 13.5473C20.7292 13.4881 20.6582 13.4414 20.58 13.4099C20.5019 13.3784 20.4183 13.3627 20.3341 13.3637H7.6626Z" fill="black"/>
<path fill-rule="evenodd" clip-rule="evenodd" d="M9.24658 18.4792C9.16235 18.4782 9.07875 18.4938 9.00063 18.5253C8.92251 18.5569 8.85143 18.6036 8.79149 18.6627C8.73156 18.7219 8.68397 18.7925 8.6515 18.8702C8.61902 18.9479 8.60229 19.0313 8.60229 19.1155C8.60229 19.1998 8.61902 19.2832 8.6515 19.3609C8.68397 19.4386 8.73156 19.5091 8.79149 19.5683C8.85143 19.6275 8.92251 19.6742 9.00063 19.7057C9.07875 19.7372 9.16235 19.7529 9.24658 19.7518H18.7502C18.8344 19.7529 18.918 19.7372 18.9961 19.7057C19.0742 19.6742 19.1453 19.6275 19.2053 19.5683C19.2652 19.5091 19.3128 19.4386 19.3453 19.3609C19.3777 19.2832 19.3945 19.1998 19.3945 19.1155C19.3945 19.0313 19.3777 18.9479 19.3453 18.8702C19.3128 18.7925 19.2652 18.7219 19.2053 18.6627C19.1453 18.6036 19.0742 18.5569 18.9961 18.5253C18.918 18.4938 18.8344 18.4782 18.7502 18.4792H9.24658Z" fill="black"/>
</g>
<defs>
<clipPath id="clip0_189_10">
<rect width="28" height="28" fill="white"/>
</clipPath>
</defs>
</svg>
