<svg width="140" height="140" viewBox="0 0 140 140" fill="none" xmlns="http://www.w3.org/2000/svg">
<path d="M69.5841 21.9617C69.5841 21.2047 69.0794 20.7 68.3224 20.7C67.5653 20.7 67.0606 21.2047 67.0606 21.9617V29.4061C67.0606 30.1631 67.5653 30.6678 68.3224 30.6678C69.0794 30.6678 69.5841 30.1631 69.5841 29.4061V21.9617Z" fill="black"/>
<path d="M57.3451 26.3778C56.7142 25.9993 55.9572 26.2516 55.5787 26.8825C55.2001 27.5134 55.4525 28.2704 56.0834 28.649L62.5183 32.308C62.7707 32.4342 62.8968 32.4342 63.1492 32.4342C63.5277 32.4342 64.0324 32.1819 64.2848 31.8033C64.6633 31.1725 64.4109 30.4154 63.7801 30.0369L57.3451 26.3778Z" fill="black"/>
<path d="M24.161 113.944L39.9329 119.874C40.0591 119.874 40.1853 120 40.3114 120C40.8161 120 41.3208 119.748 41.447 119.117C41.6994 118.486 41.3208 117.729 40.69 117.476L34.0027 114.953L38.1665 103.723C39.1759 101.074 41.447 100.569 45.1061 99.9381C50.5316 98.9287 57.2189 97.7931 58.6069 85.4279C60.4995 67.0063 70.972 48.9632 71.0982 48.837C71.2244 48.4585 71.3506 48.08 71.2244 47.8276C71.0982 47.4491 70.8459 47.1968 70.4673 47.0706L48.7652 38.9954C48.639 38.9954 48.639 38.9954 48.5128 38.8692C47.882 38.743 47.1249 39.2477 46.9987 39.8786C46.9987 40.1309 43.0873 60.5714 32.4886 75.7124C25.4227 85.9326 29.7127 91.232 33.1194 95.5219C35.3906 98.424 36.7785 100.317 35.8953 102.84L31.7315 114.07L25.0442 111.546C24.4133 111.294 23.6563 111.672 23.4039 112.303C23.1516 112.934 23.5301 113.691 24.161 113.944ZM49.2699 41.7712L68.3224 48.837C67.5653 50.0988 66.4297 52.37 65.168 55.1458C64.2848 54.0102 63.2753 52.8747 61.2565 52.1176C58.4807 51.1082 56.4619 51.7391 54.8216 52.2438C53.3075 52.7485 51.9196 53.127 50.0269 52.37C48.639 51.8653 47.882 51.1082 47.2511 50.225C48.1343 46.4397 48.8914 43.4115 49.2699 41.7712ZM35.1382 93.8816C31.7315 89.7179 28.5771 85.8064 34.6335 77.1003C40.0591 69.2775 43.8443 60.1928 46.1155 53.0008C46.7464 53.6317 47.7558 54.2626 48.8914 54.7673C51.6672 55.7767 53.686 55.1458 55.3263 54.6411C56.8404 54.1364 58.2283 53.7579 60.121 54.5149C62.1398 55.272 62.8968 56.4076 63.6539 57.7955C60.6257 64.8613 57.0928 74.8292 55.9572 85.0494C54.8216 95.5219 49.9008 96.4052 44.6014 97.4146C42.4564 97.7931 40.1853 98.1716 38.4188 99.4334C38.0403 97.4146 36.5262 95.6481 35.1382 93.8816Z" fill="black"/>
<path d="M42.0779 93.1246C42.835 93.3769 43.4659 93.3769 44.2229 93.3769C45.6109 93.3769 46.9988 92.9984 48.1344 92.3675C48.6391 92.1152 49.0176 91.7366 49.3961 91.4843C49.7746 91.2319 49.9008 90.6011 49.6485 90.0963L43.2135 78.362C42.9612 77.8573 42.4565 77.7312 41.8256 77.8573C41.3209 77.9835 40.69 78.2359 40.1853 78.4882C38.2927 79.4976 37.0309 81.2641 36.4001 83.2829C35.8954 85.3017 36.1477 87.4467 37.1571 89.3393C38.4189 91.2319 40.0591 92.4937 42.0779 93.1246ZM38.6712 83.9138C39.0497 82.3996 40.0591 81.2641 41.3209 80.507C41.4471 80.507 41.5732 80.3808 41.5732 80.3808L47.125 90.3487C46.9988 90.3487 46.9988 90.4749 46.8726 90.4749C45.6109 91.2319 43.9706 91.4843 42.5826 90.9796C41.0685 90.6011 39.933 89.5916 39.1759 88.3299C38.4189 87.0681 38.2927 85.4279 38.6712 83.9138Z" fill="black"/>
<path d="M41.447 85.5541L40.9423 85.8064C40.4376 86.0588 40.3114 86.6897 40.5638 87.1944C40.69 87.5729 41.0685 87.6991 41.447 87.6991C41.5732 87.6991 41.8256 87.6991 41.9517 87.5729L42.4564 87.3205C42.9611 87.0682 43.0873 86.4373 42.835 85.9326C42.5826 85.4279 41.9517 85.1756 41.447 85.5541Z" fill="black"/>
<path d="M42.8349 88.8346C42.7087 89.3393 43.0873 89.844 43.7181 89.9702H43.8443C44.349 89.9702 44.7275 89.5917 44.8537 89.087L44.9799 88.2038C45.1061 87.6991 44.7275 87.1944 44.0967 87.0682C43.592 86.942 43.0873 87.3205 42.9611 87.9514L42.8349 88.8346Z" fill="black"/>
<path d="M40.3114 84.5447L41.0685 84.797C41.1947 84.797 41.3208 84.9232 41.447 84.9232C41.8255 84.9232 42.2041 84.6708 42.3302 84.2923C42.5826 83.7876 42.3302 83.1567 41.8255 83.0305L41.0685 82.7782C40.5638 82.5258 39.9329 82.7782 39.8067 83.2829C39.6806 83.7876 39.8067 84.2923 40.3114 84.5447Z" fill="black"/>
<path d="M46.4941 79.2452C46.9988 79.3714 47.6296 79.4976 48.2605 79.4976C48.3867 79.4976 48.5129 79.4976 48.5129 79.4976C52.8028 79.4976 56.3357 76.0909 56.4619 71.8009C56.5881 67.3848 53.1813 63.7257 48.7652 63.4733C48.2605 63.4733 47.6296 63.4733 47.1249 63.5995C46.6202 63.7257 46.2417 64.1042 46.1155 64.6089L45.737 78.1097C45.737 78.7406 45.9894 79.1191 46.4941 79.2452ZM48.5129 65.8707C48.639 65.8707 48.639 65.8707 48.7652 65.8707C51.9196 65.9968 54.3169 68.6465 54.1908 71.8009C54.1908 73.315 53.4337 74.7029 52.4243 75.7123C51.2887 76.7217 49.9008 77.3526 48.3867 77.2264C48.2605 77.2264 48.1343 77.2264 48.0082 77.2264L48.5129 65.8707Z" fill="black"/>
<path d="M51.0364 70.9177C50.5317 70.9177 50.027 71.2962 50.027 71.9271C50.027 72.558 50.4055 72.9365 51.0364 72.9365H51.6673C52.172 72.9365 52.6767 72.558 52.6767 71.9271C52.6767 71.4224 52.2981 70.9177 51.6673 70.9177H51.0364Z" fill="black"/>
<path d="M50.2792 70.4131C50.5316 70.4131 50.9101 70.2869 51.0363 70.0346L51.541 69.4037C51.9195 69.0252 51.7933 68.3943 51.4148 68.0158C51.0363 67.6373 50.4054 67.7634 50.0269 68.142L49.5222 68.7728C49.1437 69.1514 49.2698 69.7822 49.6484 70.1608C49.7745 70.4131 50.0269 70.4131 50.2792 70.4131Z" fill="black"/>
<path d="M49.7746 75.46C50.0269 75.7124 50.2793 75.8385 50.6578 75.8385C50.9101 75.8385 51.0363 75.8385 51.2887 75.7124C51.7934 75.3338 51.7934 74.703 51.541 74.3244L51.0363 73.6936C50.6578 73.1889 50.0269 73.1889 49.6484 73.4412C49.1437 73.8197 49.1437 74.4506 49.396 74.8291L49.7746 75.46Z" fill="black"/>
<path d="M110.717 90.3488C112.484 89.7179 113.493 87.9515 112.988 86.3112L94.8192 28.7752C94.693 28.3967 94.4406 28.0182 93.9359 27.7658C93.5574 27.5135 92.9265 27.5135 92.548 27.6396L70.5935 35.3363C70.0888 35.4625 69.7103 35.841 69.5841 36.3457C69.3317 36.7243 69.3317 37.229 69.5841 37.6075L91.6648 93.7555C92.1695 95.0173 93.3051 95.6482 94.693 95.6482C95.0715 95.6482 95.5762 95.522 95.9548 95.3958L102.137 93.2508L105.923 103.976L99.1091 106.373C98.4783 106.625 98.0997 107.382 98.3521 108.013C98.4783 108.518 98.983 108.897 99.4877 108.897C99.6138 108.897 99.74 108.897 99.8662 108.77L115.764 103.219C116.395 102.966 116.774 102.209 116.521 101.578C116.269 100.948 115.512 100.569 114.881 100.821L108.068 103.219L104.282 92.4938L110.717 90.3488ZM92.6742 30.2893L94.8192 36.9766C94.0621 37.7337 93.1789 38.4907 91.6648 38.9954C89.2675 39.8787 87.7534 39.5001 85.9869 38.9954C84.0943 38.4907 81.9493 37.986 78.7949 39.1216C76.5237 39.8787 75.1358 41.1404 74.1264 42.276L72.2338 37.6075L92.6742 30.2893ZM95.0715 93.1247C94.5668 93.2508 94.0621 93.1247 93.9359 92.8723L75.1358 45.0518C76.2714 43.6639 77.1546 42.4022 79.552 41.5189C81.9493 40.6357 83.4634 41.0142 85.2298 41.5189C87.1225 42.0236 89.2675 42.5283 92.4218 41.3928C93.8098 40.8881 94.8192 40.2572 95.5762 39.6263L110.465 86.9421C110.591 87.1944 110.339 87.6991 109.834 87.8253L95.0715 93.1247Z" fill="black"/>
<path d="M92.8003 57.417C92.548 56.7861 92.1694 56.4076 91.6647 56.1552L87.501 54.1364C86.9963 53.8841 86.3654 53.8841 85.7345 54.0102C85.1036 54.2626 84.7251 54.6411 84.4727 55.1458L82.3278 59.4358C82.0754 59.9405 82.0754 60.5714 82.2016 61.2022C82.4539 61.8331 82.8325 62.2116 83.3372 62.464L87.501 64.4828C87.8795 64.609 88.1318 64.7352 88.5104 64.7352C89.3936 64.7352 90.1506 64.2305 90.5292 63.4734L92.548 59.3096C93.0527 58.6787 93.0527 58.0479 92.8003 57.417ZM88.5104 62.0855L84.7251 60.319L86.4916 56.5338L90.2768 58.3002L88.5104 62.0855Z" fill="black"/>
<path d="M100.371 63.2211C100.119 61.9593 98.8568 61.2023 97.7212 61.4546L93.1789 62.3378C92.548 62.464 92.0433 62.8425 91.6648 63.3472C91.2863 63.8519 91.1601 64.4828 91.2863 65.1137L92.1695 69.656C92.2957 70.2869 92.6742 70.7916 93.1789 71.1701C93.5574 71.4225 93.936 71.5486 94.4407 71.5486C94.5668 71.5486 94.693 71.5486 94.9454 71.5486L99.4877 70.6654C100.749 70.4131 101.506 69.1513 101.254 68.0157L100.371 63.2211ZM94.5668 68.8989L93.6836 64.7352L97.8474 63.8519L98.7306 68.0157L94.5668 68.8989Z" fill="black"/>
<path d="M89.0152 53.5056L93.6837 53.7579H93.8098C94.3145 53.7579 94.9454 53.5056 95.3239 53.127C95.8286 52.7485 96.081 52.1176 96.081 51.4868L96.3333 46.8183C96.3333 46.1874 96.2072 45.6827 95.7025 45.178C95.3239 44.6733 94.6931 44.4209 94.0622 44.4209L89.3937 44.1686C88.7628 44.1686 88.2581 44.2948 87.7534 44.7995C87.2487 45.3042 86.9964 45.8089 86.9964 46.4397L86.744 51.1082C86.744 52.37 87.7534 53.3794 89.0152 53.5056ZM89.6461 46.8183L93.8098 47.0706L93.5575 51.2344L89.3937 50.9821L89.6461 46.8183Z" fill="black"/>
</svg>
