<svg width="140" height="140" viewBox="0 0 140 140" fill="none" xmlns="http://www.w3.org/2000/svg">
<path d="M71.9763 63.3904C71.7748 63.367 71.5706 63.3838 71.3757 63.4399C71.1807 63.496 70.9988 63.5902 70.8406 63.7171C70.6823 63.844 70.5508 64.0011 70.4537 64.1792C70.3566 64.3573 70.2957 64.5529 70.2748 64.7547L70.0295 67.0999C69.9971 67.3855 69.8851 67.6563 69.7062 67.8812C69.5273 68.1062 69.2888 68.2763 69.0178 68.3722L58.809 71.9285C58.4946 72.0378 58.2243 72.2465 58.039 72.5231C57.8537 72.7996 57.7635 73.129 57.782 73.4613V87.1498C57.7808 87.3515 57.8195 87.5515 57.8957 87.7383C57.972 87.925 58.0844 88.0949 58.2265 88.2381L66.5346 96.5769C66.7978 96.8495 66.9507 97.2099 66.9638 97.5886V111.384C66.9638 111.791 66.8023 112.181 66.5148 112.468C66.2274 112.756 65.8375 112.917 65.4309 112.917C65.0244 112.917 64.6345 112.756 64.347 112.468C64.0596 112.181 63.8981 111.791 63.8981 111.384V98.8609C63.8992 98.6591 63.8606 98.4592 63.7843 98.2724C63.708 98.0856 63.5956 97.9158 63.4535 97.7725L54.5783 88.8359C54.435 88.6939 54.2652 88.5815 54.0784 88.5052C53.8917 88.4289 53.6917 88.3902 53.4899 88.3914H50.1023C49.6958 88.3914 49.3059 88.5529 49.0184 88.8404C48.7309 89.1278 48.5695 89.5177 48.5695 89.9243V102.187C48.5681 102.44 48.5045 102.688 48.3842 102.91C48.2638 103.132 48.0905 103.321 47.8797 103.459L34.0839 112.657C33.746 112.878 33.3341 112.958 32.9379 112.877C32.5417 112.797 32.1933 112.563 31.9685 112.227C31.7467 111.889 31.6673 111.478 31.7477 111.081C31.8281 110.685 32.0617 110.337 32.3978 110.112L44.8139 101.819C45.0248 101.68 45.1981 101.492 45.3184 101.27C45.4388 101.048 45.5024 100.799 45.5037 100.547V89.9243C45.5037 89.5177 45.3422 89.1278 45.0548 88.8404C44.7673 88.5529 44.3774 88.3914 43.9709 88.3914C43.5643 88.3914 43.1744 88.5529 42.887 88.8404C42.5995 89.1278 42.438 89.5177 42.438 89.9243V99.7193L30.6963 107.552C29.8729 108.098 29.2473 108.895 28.9122 109.825C28.5771 110.754 28.5503 111.767 28.8358 112.713C29.1213 113.659 29.7039 114.488 30.4973 115.077C31.2907 115.666 32.2527 115.983 33.2408 115.983C34.146 115.983 35.0311 115.717 35.7854 115.217L49.5811 106.019C50.213 105.6 50.7313 105.03 51.0897 104.361C51.4481 103.693 51.6355 102.946 51.6352 102.187V91.4571H52.8461L60.8324 99.4893V111.384C60.8324 112.604 61.3168 113.774 62.1792 114.636C63.0417 115.498 64.2113 115.983 65.4309 115.983C66.6506 115.983 67.8202 115.498 68.6826 114.636C69.545 113.774 70.0295 112.604 70.0295 111.384V97.5886C70.0325 96.3716 69.553 95.203 68.6959 94.3389L60.8324 86.4447V74.473L70.0295 71.2693C70.8503 70.9853 71.5738 70.4746 72.1163 69.7964C72.6589 69.1182 72.9983 68.3002 73.0953 67.4372L73.3558 65.0919C73.3792 64.8892 73.3618 64.6839 73.3048 64.488C73.2478 64.2922 73.1522 64.1096 73.0237 63.9512C72.8952 63.7927 72.7364 63.6615 72.5565 63.5652C72.3767 63.4689 72.1794 63.4095 71.9763 63.3904Z" fill="black"/>
<path d="M40.7212 82.2599L42.438 80.8803V83.7928C42.438 84.1993 42.5995 84.5892 42.887 84.8767C43.1744 85.1642 43.5643 85.3256 43.9709 85.3256C44.3774 85.3256 44.7673 85.1642 45.0548 84.8767C45.3422 84.5892 45.5037 84.1993 45.5037 83.7928V77.6613C45.5029 77.3724 45.4205 77.0896 45.2659 76.8455C45.1113 76.6014 44.8909 76.406 44.63 76.2818C44.3824 76.1719 44.1101 76.1297 43.8408 76.1593C43.5716 76.1889 43.315 76.2893 43.0971 76.4504L38.8971 79.792C38.733 79.9238 38.5435 80.0204 38.3405 80.0758C38.1374 80.1312 37.9251 80.1442 37.7168 80.1139L28.5196 78.719H28.2744C27.9033 78.6311 27.5784 78.4081 27.363 78.0934C27.1476 77.7788 27.0572 77.3952 27.1094 77.0175C27.174 76.6174 27.3945 76.2592 27.7225 76.0212C28.0472 75.7778 28.4551 75.6731 28.8568 75.7299L36.7511 76.9256C36.9583 76.9579 37.17 76.9474 37.373 76.8947C37.5761 76.842 37.7661 76.7481 37.9314 76.619L45.8103 70.3496C46.2034 70.1833 46.6152 70.0649 47.0366 69.997H48.5695C48.976 69.997 49.3659 69.8355 49.6534 69.5481C49.9408 69.2606 50.1023 68.8707 50.1023 68.4642V67.8204C50.1034 67.5212 50.0168 67.2283 49.8534 66.9777C49.69 66.7271 49.4568 66.5298 49.1826 66.4101C47.8916 65.8467 46.8339 64.8559 46.1875 63.6043C45.541 62.3527 45.3453 60.9168 45.6331 59.5378C45.9209 58.1589 46.6747 56.9211 47.7678 56.0326C48.8609 55.1441 50.2265 54.6591 51.6352 54.6591C53.0438 54.6591 54.4095 55.1441 55.5026 56.0326C56.5957 56.9211 57.3495 58.1589 57.6373 59.5378C57.9251 60.9168 57.7293 62.3527 57.0829 63.6043C56.4365 64.8559 55.3788 65.8467 54.0878 66.4101C53.8136 66.5298 53.5804 66.7271 53.417 66.9777C53.2535 67.2283 53.167 67.5212 53.1681 67.8204V68.4642C53.1681 68.8707 53.3295 69.2606 53.617 69.5481C53.9045 69.8355 54.2944 69.997 54.7009 69.997H55.6513C56.046 69.9954 56.4248 69.8417 56.709 69.5678C56.8654 69.4119 57.0536 69.2917 57.2608 69.2153L66.1667 66.1495C66.4405 66.056 66.6823 65.8869 66.864 65.6618C67.0458 65.4366 67.1601 65.1646 67.1937 64.8773L68.4967 52.9669C68.5429 52.5651 68.7461 52.1978 69.0619 51.9452C69.3778 51.6925 69.7807 51.5749 70.1828 51.618C70.3831 51.6392 70.5857 51.6208 70.7789 51.5637C70.972 51.5066 71.1521 51.412 71.3087 51.2853C71.4653 51.1586 71.5953 51.0023 71.6915 50.8253C71.7876 50.6483 71.8479 50.4541 71.869 50.2538C71.9121 49.8516 71.7945 49.4487 71.5418 49.1328C71.2891 48.817 70.9219 48.6138 70.5201 48.5676C69.9191 48.4994 69.3105 48.5504 68.7293 48.7178C68.148 48.8851 67.6055 49.1655 67.1327 49.5428C66.66 49.9201 66.2664 50.387 65.9743 50.9167C65.6823 51.4464 65.4977 52.0285 65.431 52.6297L64.22 63.5437L59.7287 65.0765C60.5283 63.5709 60.8937 61.8727 60.7841 60.1714C60.6745 58.4702 60.0942 56.8328 59.108 55.4423C58.1218 54.0517 56.7686 52.9626 55.1993 52.2965C53.63 51.6305 51.9065 51.4137 50.2211 51.6704C48.5358 51.9271 46.9549 52.6471 45.6551 53.7502C44.3553 54.8532 43.3876 56.2959 42.8601 57.917C42.3326 59.5381 42.2661 61.274 42.668 62.9307C43.0698 64.5874 43.9242 66.0999 45.1358 67.2992L44.3847 67.5904L44.0475 67.7897L36.5365 73.7679L29.3014 72.6795C28.1696 72.5247 27.0207 72.7967 26.0785 73.4425C25.1362 74.0883 24.4681 75.0616 24.2041 76.173C23.9401 77.2844 24.0992 78.4542 24.6504 79.4548C25.2017 80.4553 26.1055 81.2148 27.186 81.5855C27.427 81.663 27.6728 81.7244 27.9218 81.7694L37.119 83.1643C37.7493 83.2723 38.3952 83.2477 39.0155 83.092C39.6357 82.9362 40.2167 82.6529 40.7212 82.2599Z" fill="black"/>
<path d="M114.391 37.3624C113.885 36.9183 113.288 36.5907 112.641 36.4026C111.995 36.2146 111.315 36.1707 110.65 36.274C109.551 36.4875 108.563 37.0834 107.862 37.9561C107.16 38.8288 106.79 39.9219 106.818 41.0412V60.7998H102.94C103.855 59.767 104.528 58.543 104.91 57.2171C105.292 55.8912 105.373 54.4968 105.147 53.1355C104.831 51.339 103.987 49.6773 102.723 48.3616C101.459 47.046 99.8326 46.1359 98.0502 45.7471C96.7007 45.4621 95.3047 45.4806 93.9633 45.8014C92.6218 46.1222 91.3685 46.7372 90.2939 47.6019C88.639 48.9449 87.5018 50.821 87.0768 52.9096C86.6519 54.9981 86.9654 57.1694 87.964 59.0524L83.4727 57.5195L82.2771 46.7895C82.1904 45.6213 81.674 44.5268 80.8275 43.7171C79.9811 42.9075 78.8646 42.4402 77.6938 42.4055C77.051 42.4089 76.416 42.5471 75.8298 42.8112C75.2437 43.0752 74.7194 43.4592 74.2909 43.9383C73.8508 44.4156 73.5167 44.9805 73.3106 45.5961C73.1045 46.2117 73.0311 46.8639 73.0952 47.5099L74.6281 61.3057C74.7251 62.1687 75.0645 62.9867 75.607 63.6649C76.1496 64.3431 76.8731 64.8538 77.6938 65.1378L86.891 68.3415V80.3132L79.0274 88.2074C78.1704 89.0715 77.6908 90.2401 77.6938 91.4571V105.084C77.666 106.204 78.0357 107.297 78.7372 108.169C79.4388 109.042 80.4268 109.638 81.526 109.851C82.1907 109.964 82.8721 109.929 83.5218 109.749C84.1715 109.568 84.7737 109.248 85.2856 108.809C85.7975 108.37 86.2066 107.824 86.4841 107.21C86.7615 106.595 86.9004 105.927 86.891 105.253V93.3578L94.8772 85.3256H96.0882V111.216C96.0604 112.335 96.4301 113.428 97.1316 114.301C97.8331 115.173 98.8211 115.769 99.9203 115.983C100.175 116.006 100.432 116.006 100.687 115.983C101.906 115.983 103.076 115.498 103.938 114.636C104.801 113.774 105.285 112.604 105.285 111.384V74.5956C105.285 74.1891 105.124 73.7992 104.836 73.5117C104.549 73.2242 104.159 73.0627 103.752 73.0627C103.346 73.0627 102.956 73.2242 102.669 73.5117C102.381 73.7992 102.22 74.1891 102.22 74.5956V111.384C102.223 111.61 102.177 111.833 102.084 112.038C101.991 112.243 101.854 112.426 101.683 112.572C101.512 112.718 101.31 112.825 101.093 112.885C100.876 112.944 100.648 112.955 100.426 112.917C100.052 112.826 99.7216 112.608 99.4898 112.301C99.258 111.993 99.1393 111.616 99.1539 111.231V83.7928C99.1539 83.3862 98.9924 82.9963 98.7049 82.7089C98.4175 82.4214 98.0276 82.2599 97.621 82.2599H94.2334C94.0317 82.2587 93.8317 82.2974 93.6449 82.3737C93.4582 82.45 93.2883 82.5624 93.1451 82.7044L84.2698 91.641C84.1277 91.7843 84.0153 91.9541 83.939 92.1409C83.8628 92.3277 83.8241 92.5276 83.8253 92.7294V105.253C83.8285 105.478 83.7821 105.701 83.6894 105.907C83.5966 106.112 83.4597 106.294 83.2885 106.44C83.1173 106.587 82.9159 106.694 82.6987 106.753C82.4815 106.813 82.2538 106.824 82.0318 106.786C81.658 106.694 81.3272 106.476 81.0954 106.169C80.8636 105.862 80.745 105.484 80.7595 105.1V91.4571C80.7584 91.2554 80.797 91.0554 80.8733 90.8686C80.9496 90.6819 81.062 90.512 81.2041 90.3688L89.5122 82.03C89.6542 81.8868 89.7666 81.7169 89.8429 81.5301C89.9192 81.3434 89.9579 81.1434 89.9567 80.9417V67.2532C89.9586 66.9337 89.8607 66.6216 89.6765 66.3605C89.4924 66.0994 89.2313 65.9024 88.9297 65.797L78.7208 62.2407C78.4499 62.1448 78.2113 61.9747 78.0325 61.7497C77.8536 61.5248 77.7415 61.254 77.7091 60.9685L76.1763 47.1727C76.1523 46.9612 76.1726 46.747 76.2359 46.5438C76.2993 46.3406 76.4043 46.1528 76.5442 45.9924C76.6878 45.8289 76.8646 45.6978 77.0628 45.608C77.2611 45.5181 77.4762 45.4715 77.6938 45.4712C78.0877 45.5086 78.4562 45.6822 78.736 45.9619C79.0157 46.2417 79.1892 46.6102 79.2267 47.0041L80.5143 58.7151C80.5479 59.0025 80.6622 59.2745 80.844 59.4996C81.0257 59.7248 81.2675 59.8939 81.5413 59.9874L90.4472 63.0531C90.6544 63.1295 90.8427 63.2498 90.9991 63.4057C91.2832 63.6796 91.6621 63.8333 92.0567 63.8349H93.0224C93.429 63.8349 93.8189 63.6734 94.1063 63.3859C94.3938 63.0985 94.5553 62.7086 94.5553 62.302V61.6582C94.5563 61.3591 94.4698 61.0661 94.3064 60.8155C94.143 60.565 93.9098 60.3677 93.6356 60.248C92.3445 59.6845 91.2869 58.6937 90.6405 57.4422C89.994 56.1906 89.7982 54.7546 90.086 53.3757C90.3738 51.9968 91.1277 50.759 92.2208 49.8705C93.3138 48.982 94.6795 48.497 96.0882 48.497C97.4968 48.497 98.8625 48.982 99.9556 49.8705C101.049 50.759 101.802 51.9968 102.09 53.3757C102.378 54.7546 102.182 56.1906 101.536 57.4422C100.889 58.6937 99.8318 59.6845 98.5407 60.248C98.2665 60.3677 98.0334 60.565 97.8699 60.8155C97.7065 61.0661 97.62 61.3591 97.621 61.6582V62.3327C97.621 62.7392 97.7825 63.1291 98.07 63.4166C98.3575 63.7041 98.7473 63.8656 99.1539 63.8656H106.818C107.631 63.8656 108.411 63.5426 108.986 62.9676C109.561 62.3927 109.884 61.6129 109.884 60.7998V41.0412C109.869 40.6587 109.985 40.2825 110.214 39.9756C110.443 39.6687 110.77 39.4496 111.141 39.3551C111.366 39.3153 111.597 39.3264 111.817 39.3874C112.037 39.4484 112.241 39.5578 112.413 39.7076C112.581 39.8516 112.716 40.0302 112.809 40.2313C112.902 40.4324 112.95 40.6512 112.95 40.8726V60.7998C112.95 62.426 112.304 63.9856 111.154 65.1354C110.004 66.2853 108.444 66.9313 106.818 66.9313H103.752C103.346 66.9313 102.956 67.0928 102.669 67.3802C102.381 67.6677 102.22 68.0576 102.22 68.4641C102.22 68.8707 102.381 69.2606 102.669 69.548C102.956 69.8355 103.346 69.997 103.752 69.997H106.818C109.257 69.997 111.597 69.028 113.322 67.3032C115.046 65.5784 116.015 63.2391 116.015 60.7998V40.8726C116.016 40.2046 115.871 39.5446 115.59 38.9383C115.309 38.3321 114.9 37.7943 114.391 37.3624Z" fill="black"/>
<path d="M28.6422 42.4055C29.8618 42.4055 31.0315 41.921 31.8939 41.0586C32.7563 40.1962 33.2408 39.0266 33.2408 37.8069V33.2083H42.438V36.55C41.5171 36.2244 40.5165 36.2005 39.5811 36.4817C38.6458 36.7629 37.8242 37.3347 37.2356 38.114C36.6469 38.8934 36.3217 39.84 36.307 40.8166C36.2924 41.7933 36.5891 42.7492 37.1541 43.5459C37.7192 44.3426 38.5232 44.9387 39.4497 45.2478C40.3762 45.5569 41.3771 45.563 42.3073 45.2652C43.2375 44.9674 44.0487 44.3811 44.6234 43.5914C45.1981 42.8016 45.5064 41.8494 45.5037 40.8727V25.544C45.5037 25.1375 45.3422 24.7476 45.0547 24.4601C44.7673 24.1727 44.3774 24.0112 43.9708 24.0112H31.7079C31.3014 24.0112 30.9115 24.1727 30.624 24.4601C30.3366 24.7476 30.1751 25.1375 30.1751 25.544V33.4843C29.5426 33.2548 28.8675 33.1669 28.1973 33.2267C27.5272 33.2866 26.8783 33.4928 26.2966 33.8308C25.7148 34.1687 25.2143 34.6302 24.8303 35.1827C24.4463 35.7352 24.1883 36.3653 24.0743 37.0283C23.9604 37.6914 23.9934 38.3715 24.1709 39.0204C24.3484 39.6694 24.6662 40.2715 25.1018 40.7843C25.5374 41.2971 26.0802 41.708 26.6919 41.9881C27.3037 42.2683 27.9694 42.4107 28.6422 42.4055ZM40.9051 42.4055C40.6019 42.4055 40.3056 42.3156 40.0535 42.1472C39.8014 41.9788 39.6049 41.7394 39.4889 41.4593C39.3729 41.1792 39.3425 40.871 39.4017 40.5736C39.4608 40.2763 39.6068 40.0031 39.8212 39.7888C40.0356 39.5744 40.3087 39.4284 40.6061 39.3693C40.9034 39.3101 41.2116 39.3405 41.4917 39.4565C41.7718 39.5725 42.0112 39.769 42.1796 40.021C42.3481 40.2731 42.438 40.5695 42.438 40.8727C42.438 41.2792 42.2765 41.6691 41.989 41.9566C41.7015 42.244 41.3116 42.4055 40.9051 42.4055ZM33.2408 27.0769H42.438V30.1426H33.2408V27.0769ZM28.6422 36.2741C28.9454 36.2741 29.2417 36.364 29.4938 36.5324C29.7459 36.7008 29.9424 36.9402 30.0584 37.2203C30.1744 37.5004 30.2048 37.8086 30.1456 38.106C30.0865 38.4033 29.9405 38.6765 29.7261 38.8908C29.5117 39.1052 29.2386 39.2512 28.9412 39.3103C28.6439 39.3695 28.3357 39.3391 28.0556 39.2231C27.7755 39.1071 27.5361 38.9106 27.3677 38.6585C27.1992 38.4065 27.1093 38.1101 27.1093 37.8069C27.1093 37.4004 27.2708 37.0105 27.5583 36.723C27.8458 36.4356 28.2357 36.2741 28.6422 36.2741Z" fill="black"/>
<path d="M84.2239 40.6887C84.9575 41.1688 85.8152 41.4245 86.6919 41.4245C87.4614 41.4195 88.218 41.227 88.8964 40.8637C89.5748 40.5005 90.1545 39.9774 90.5853 39.3398L94.6934 32.8711L101.162 36.9945C101.409 37.1539 101.696 37.239 101.99 37.2398C102.246 37.2394 102.499 37.1746 102.724 37.0514C102.948 36.9282 103.139 36.7506 103.277 36.5347L106.573 31.3536C106.696 31.1798 106.781 30.9824 106.823 30.7739C106.865 30.5655 106.864 30.3505 106.818 30.1427C106.724 29.7471 106.483 29.4021 106.144 29.1769L98.3569 24.2565C98.0153 24.0375 97.6007 23.9629 97.2042 24.0492C96.8077 24.1354 96.4615 24.3753 96.2416 24.7163L93.0226 29.8821L90.3247 34.0055C90.007 33.5878 89.6177 33.2297 89.1751 32.9478C88.1499 32.3517 86.934 32.1747 85.7815 32.4538C84.6289 32.7329 83.6286 33.4464 82.9897 34.4454C82.3507 35.4445 82.1223 36.6517 82.3523 37.8151C82.5823 38.9785 83.2529 40.008 84.2239 40.6887ZM98.0197 27.6594L103.185 30.9551L101.515 33.5456L96.3489 30.25L98.0197 27.6594ZM85.3583 35.9982C85.4982 35.7801 85.691 35.6011 85.9189 35.4778C86.1467 35.3545 86.4021 35.2909 86.6612 35.2931C86.9525 35.2955 87.2381 35.3749 87.4889 35.523C87.8276 35.7452 88.0646 36.0924 88.1481 36.4887C88.2358 36.8832 88.1642 37.2964 87.9488 37.6384C87.8411 37.8085 87.701 37.9557 87.5364 38.0717C87.3718 38.1876 87.186 38.27 86.9896 38.3141C86.7931 38.3583 86.5899 38.3632 86.3916 38.3288C86.1932 38.2944 86.0035 38.2213 85.8335 38.1135C85.6633 38.0059 85.5161 37.8657 85.4001 37.7011C85.2842 37.5365 85.2018 37.3507 85.1577 37.1543C85.1135 36.9579 85.1085 36.7547 85.143 36.5563C85.1774 36.3579 85.2505 36.1683 85.3583 35.9982Z" fill="black"/>
<path d="M54.7009 38.3127C54.9241 39.335 55.4893 40.2505 56.303 40.9082C57.1168 41.5659 58.1305 41.9265 59.1769 41.9303C59.5116 41.9249 59.8451 41.889 60.1732 41.823C61.3617 41.5613 62.3979 40.8392 63.055 39.8149L68.0062 32.0586C68.2251 31.717 68.2997 31.3024 68.2135 30.9059C68.1273 30.5094 67.8873 30.1632 67.5463 29.9433C67.2046 29.7243 66.7901 29.6498 66.3936 29.736C65.997 29.8222 65.6509 30.0621 65.4309 30.4031L62.7944 34.5112C62.4817 34.0945 62.0977 33.7364 61.6601 33.4535C60.6333 32.7981 59.3883 32.5768 58.1985 32.8384C57.0088 33.0999 55.9714 33.8228 55.314 34.8484C54.9823 35.3542 54.7569 35.922 54.6515 36.5176C54.5461 37.1131 54.5629 37.7239 54.7009 38.3127ZM57.8893 36.5039C57.9978 36.3334 58.139 36.186 58.3047 36.0702C58.4705 35.9545 58.6575 35.8727 58.855 35.8295C58.9668 35.8135 59.0803 35.8135 59.1922 35.8295C59.4648 35.8317 59.7318 35.9065 59.9659 36.0462C60.1999 36.186 60.3925 36.3856 60.5236 36.6246C60.6548 36.8635 60.7199 37.1331 60.7122 37.4056C60.7045 37.6781 60.6243 37.9436 60.4798 38.1748C60.3713 38.3453 60.2301 38.4927 60.0643 38.6085C59.8986 38.7242 59.7116 38.806 59.5141 38.8492C59.2189 38.9139 58.9112 38.8899 58.6296 38.7801C58.348 38.6704 58.1051 38.4799 57.9315 38.2326C57.7578 37.9852 57.6612 37.6921 57.6537 37.39C57.6462 37.0879 57.7281 36.7903 57.8893 36.5346V36.5039Z" fill="black"/>
<path d="M76.161 36.2741C76.5676 36.2741 76.9575 36.1126 77.2449 35.8251C77.5324 35.5376 77.6939 35.1478 77.6939 34.7412V28.6098C77.6939 28.2032 77.5324 27.8133 77.2449 27.5259C76.9575 27.2384 76.5676 27.0769 76.161 27.0769C75.7545 27.0769 75.3646 27.2384 75.0771 27.5259C74.7897 27.8133 74.6282 28.2032 74.6282 28.6098V34.7412C74.6282 35.1478 74.7897 35.5376 75.0771 35.8251C75.3646 36.1126 75.7545 36.2741 76.161 36.2741Z" fill="black"/>
<path d="M28.6422 54.6684V59.267C28.6422 59.6736 28.8037 60.0634 29.0912 60.3509C29.3786 60.6384 29.7685 60.7999 30.1751 60.7999C30.5816 60.7999 30.9715 60.6384 31.259 60.3509C31.5464 60.0634 31.7079 59.6736 31.7079 59.267V54.6684C31.7079 54.2619 31.5464 53.872 31.259 53.5845C30.9715 53.2971 30.5816 53.1356 30.1751 53.1356C29.7685 53.1356 29.3786 53.2971 29.0912 53.5845C28.8037 53.872 28.6422 54.2619 28.6422 54.6684Z" fill="black"/>
<path d="M60.8324 50.0698C61.679 50.0698 62.3653 49.3835 62.3653 48.537C62.3653 47.6904 61.679 47.0041 60.8324 47.0041C59.9858 47.0041 59.2996 47.6904 59.2996 48.537C59.2996 49.3835 59.9858 50.0698 60.8324 50.0698Z" fill="black"/>
<path d="M53.168 28.6097C54.0146 28.6097 54.7009 27.9234 54.7009 27.0769C54.7009 26.2303 54.0146 25.544 53.168 25.544C52.3214 25.544 51.6351 26.2303 51.6351 27.0769C51.6351 27.9234 52.3214 28.6097 53.168 28.6097Z" fill="black"/>
</svg>
