<!-- Generator: Adobe Illustrator 18.0.0, SVG Export Plug-In  -->
<svg version="1.1"
	 xmlns="http://www.w3.org/2000/svg" xmlns:xlink="http://www.w3.org/1999/xlink" xmlns:a="http://ns.adobe.com/AdobeSVGViewerExtensions/3.0/"
	 x="0px" y="0px" width="148.7px" height="148.7px" viewBox="0 0 148.7 148.7" enable-background="new 0 0 148.7 148.7"
	 xml:space="preserve">
<defs>
</defs>
<g>
	<g>
		
			<circle opacity="0.4" fill="#2B956E" stroke="#FFFFFF" stroke-width="1.6705" stroke-miterlimit="10" cx="74.3" cy="74.3" r="73.5"/>
		<circle fill="none" stroke="#FFFFFF" stroke-width="1.6705" stroke-miterlimit="10" cx="74.3" cy="74.3" r="57.1"/>
		<circle fill="none" stroke="#FFFFFF" stroke-width="1.6705" stroke-miterlimit="10" cx="74.3" cy="74.3" r="73.5"/>
	</g>
	<g>
		<path fill="#FFFFFF" d="M96.5,104.7v-5.1h-0.1c0-0.4,0.1-0.8,0.1-1.3V76.9v-6.3c0-11.9-9.9-21.5-22.2-21.5s-22.2,9.6-22.2,21.5
			v6.3v21.5c0,0.4,0,0.8,0.1,1.3h-0.1v5.1c0,0-13-0.2-13-13.9c0-7.8,4.2-11.2,7.8-12.7v-7.5C46.9,55.9,59.2,44,74.3,44
			c15.1,0,27.4,11.9,27.4,26.5v7.5c3.6,1.5,7.8,4.9,7.8,12.7C109.6,104.4,96.5,104.7,96.5,104.7L96.5,104.7z M57.4,104.7h-2.6V76.9
			h2.6V104.7L57.4,104.7z M93.9,104.7h-2.6V76.9h2.6V104.7L93.9,104.7z"/>
		<rect x="93.9" y="76.9" fill="#30343F" width="2.6" height="27.8"/>
		<rect x="52.2" y="76.9" fill="#30343F" width="2.6" height="27.8"/>
	</g>
</g>
</svg>