<!-- Generator: Adobe Illustrator 18.0.0, SVG Export Plug-In  -->
<svg version="1.1"
	 xmlns="http://www.w3.org/2000/svg" xmlns:xlink="http://www.w3.org/1999/xlink" xmlns:a="http://ns.adobe.com/AdobeSVGViewerExtensions/3.0/"
	 x="0px" y="0px" width="148.7px" height="148.7px" viewBox="0 0 148.7 148.7" enable-background="new 0 0 148.7 148.7"
	 xml:space="preserve">
<defs>
</defs>
<g>
	<g>
		
			<circle opacity="0.4" fill="#2B956E" stroke="#FFFFFF" stroke-width="1.6705" stroke-miterlimit="10" cx="74.3" cy="74.3" r="73.5"/>
		<circle fill="none" stroke="#FFFFFF" stroke-width="1.6705" stroke-miterlimit="10" cx="74.3" cy="74.3" r="57.1"/>
		<circle fill="none" stroke="#FFFFFF" stroke-width="1.6705" stroke-miterlimit="10" cx="74.3" cy="74.3" r="73.5"/>
	</g>
	<g>
		<circle fill="#30343F" cx="66" cy="74.3" r="30.7"/>
		<path fill="#FFFFFF" d="M109.9,100.6c1.8-0.2,2.8,0,3.2,0.5c0.5,0.8,0.3,1.5-0.6,2c-1.8,1-4,1.1-6.6,0.2c-2.6-0.9-4.5-2.4-5.7-4.4
			c-3-5.1-1.6-11.1,4.1-17.9l1-1.2c4.8-5.8,6-10.9,3.6-15.1c-1.1-1.9-3.9-2.6-7-2.4c-2.3,0.1-4.8,0.6-6.9,1.4
			c1.2,3.3,1.9,6.9,1.9,10.7c0,17-13.8,30.7-30.7,30.7c-17,0-30.7-13.8-30.7-30.7s13.8-30.7,30.7-30.7c12.2,0,22.7,7.1,27.7,17.4
			c6.2-2.6,14.7-3.1,17.7,2.1c2.9,5,1.9,11-3,17.8l-1.7,2.3c-2.7,3.6-4.3,6.4-4.8,8.4c-0.5,2-0.3,3.9,0.9,5.8
			C104.3,99.9,106.6,101,109.9,100.6L109.9,100.6z M52,68.1c-3.5,0-6.4,2.9-6.4,6.4c0,3.5,2.9,6.4,6.4,6.4s6.4-2.9,6.4-6.4
			C58.4,71,55.5,68.1,52,68.1L52,68.1z M66.1,54c-3.5,0-6.4,2.9-6.4,6.4c0,3.5,2.9,6.4,6.4,6.4c3.5,0,6.4-2.9,6.4-6.4
			C72.5,56.9,69.6,54,66.1,54L66.1,54z M63.6,74.5c0,1.4,1.1,2.6,2.6,2.6c1.4,0,2.6-1.1,2.6-2.6c0-1.4-1.1-2.6-2.6-2.6
			C64.7,71.9,63.6,73.1,63.6,74.5L63.6,74.5z M66.1,82.2c-3.5,0-6.4,2.9-6.4,6.4c0,3.5,2.9,6.4,6.4,6.4c3.5,0,6.4-2.9,6.4-6.4
			C72.5,85,69.6,82.2,66.1,82.2L66.1,82.2z M80.2,68.1c-3.5,0-6.4,2.9-6.4,6.4c0,3.5,2.9,6.4,6.4,6.4c3.5,0,6.4-2.9,6.4-6.4
			C86.6,71,83.7,68.1,80.2,68.1L80.2,68.1z"/>
	</g>
</g>
</svg>