<!-- Generator: Adobe Illustrator 18.0.0, SVG Export Plug-In  -->
<svg version="1.1"
	 xmlns="http://www.w3.org/2000/svg" xmlns:xlink="http://www.w3.org/1999/xlink" xmlns:a="http://ns.adobe.com/AdobeSVGViewerExtensions/3.0/"
	 x="0px" y="0px" width="148.7px" height="148.7px" viewBox="0 0 148.7 148.7" enable-background="new 0 0 148.7 148.7"
	 xml:space="preserve">
<defs>
</defs>
<g>
	<g>
		
			<circle opacity="0.4" fill="#2B956E" stroke="#FFFFFF" stroke-width="1.6705" stroke-miterlimit="10" cx="74.3" cy="74.3" r="73.5"/>
		<circle fill="none" stroke="#FFFFFF" stroke-width="1.6705" stroke-miterlimit="10" cx="74.3" cy="74.3" r="57.1"/>
		<circle fill="none" stroke="#FFFFFF" stroke-width="1.6705" stroke-miterlimit="10" cx="74.3" cy="74.3" r="73.5"/>
	</g>
	<g>
		<g>
			<circle fill="#30343F" cx="64.6" cy="60.1" r="6"/>
			<g>
				<circle fill="#30343F" cx="83.6" cy="60.1" r="6"/>
			</g>
			<line fill="none" stroke="#30343F" stroke-width="2" stroke-miterlimit="10" x1="64.3" y1="59.8" x2="64.3" y2="72.8"/>
			<line fill="none" stroke="#30343F" stroke-width="2" stroke-miterlimit="10" x1="83.3" y1="59.8" x2="83.3" y2="72.8"/>
			<line fill="none" stroke="#30343F" stroke-width="2" stroke-miterlimit="10" x1="64.6" y1="68.1" x2="74.4" y2="64.2"/>
			<polyline fill="none" stroke="#30343F" stroke-width="2" stroke-miterlimit="10" points="64.6,68.1 57.5,68.8 54.8,63.8 			"/>
			<line fill="none" stroke="#30343F" stroke-width="2" stroke-miterlimit="10" x1="83.3" y1="68.8" x2="93.3" y2="69.9"/>
			<line fill="none" stroke="#30343F" stroke-width="2" stroke-miterlimit="10" x1="83.3" y1="68.8" x2="75.3" y2="70.9"/>
		</g>
		<rect x="40.5" y="76.2" fill="#30343F" width="68.8" height="18.4"/>
		<g>
			<path fill="#FFFFFF" d="M112,72.9l-4.8,0.2h-0.4l0.4,2.5c2.7,0,5,2.2,5,5v12.4c0,2.7-2.2,4.9-5,4.9h0v4.7c0,1.5-1.1,2.7-2.5,2.7
				h-7.4c-1.4,0-2.5-1.2-2.5-2.7v-4.7H55.3v4.7c0,1.5-1.1,2.7-2.5,2.7h-7.4c-1.4,0-2.5-1.2-2.5-2.7v-4.7h0c-2.7,0-5-2.2-5-4.9V80.5
				c0-2.7,2.2-5,5-5l0.4-2.5h-0.4L38,72.9c-1.5,0-2.5-0.8-2.5-2.3v-9.9c0-1.5,1-2.5,2.5-2.5h5v9.9h1.2l3.7-22.3
				c0,0,13.5-2.5,27.2-2.5c13.5,0,27.2,2.5,27.2,2.5l3.7,22.3h1.2v-9.9h5c1.5,0,2.5,1,2.5,2.5v9.9C114.6,72.1,113.5,72.9,112,72.9
				L112,72.9z M50.3,92.9c4.1,0,7.4-3.3,7.4-7.5c0-4.1-3.3-7.4-7.4-7.4s-7.4,3.3-7.4,7.4C42.9,89.6,46.2,92.9,50.3,92.9L50.3,92.9z
				 M97.3,50.8c0,0-11.1-2.5-22.3-2.5c-11.1,0-22.3,2.5-22.3,2.5l-4.9,22.3h54.5L97.3,50.8L97.3,50.8z M99.7,78
				c-4.1,0-7.4,3.3-7.4,7.4c0,4.1,3.3,7.5,7.4,7.5c4.1,0,7.4-3.3,7.4-7.5C107.2,81.4,103.8,78,99.7,78L99.7,78z"/>
		</g>
	</g>
</g>
</svg>