<svg width="92" height="43" viewBox="0 0 92 43" fill="none" xmlns="http://www.w3.org/2000/svg">
<g clip-path="url(#clip0_1_26)">
<path d="M8.86181 10.6235C8.71772 10.6912 8.57362 10.8265 8.35748 10.8942C8.14134 11.0295 7.9252 11.0972 7.56496 11.2325C7.27677 11.3002 6.91654 11.4355 6.5563 11.5032C6.26811 11.5032 5.90787 11.5708 5.47559 11.5708C4.61102 11.5708 3.89055 11.4355 3.17008 11.0972C2.52165 10.8265 1.94528 10.4205 1.44094 9.87918C1.00866 9.40552 0.648425 8.8642 0.360236 8.18754C0.144094 7.51089 0 6.83423 0 6.08991C0 5.27792 0.144094 4.5336 0.432283 3.85694C0.720472 3.18029 1.15276 2.5713 1.65709 2.09764C2.16142 1.55631 2.7378 1.15032 3.45827 0.879657C4.10669 0.608995 4.89921 0.473663 5.61968 0.473663C5.90787 0.473663 6.19606 0.473663 6.5563 0.541329C6.84449 0.608995 7.13268 0.67666 7.42087 0.744326C7.70905 0.811991 7.9252 0.879657 8.14134 1.01499C8.35748 1.08265 8.50157 1.21799 8.57362 1.28565C8.50157 1.42098 8.42953 1.55631 8.35748 1.62398C8.28543 1.69164 8.28543 1.82698 8.21339 1.89464C8.14134 1.96231 8.06929 2.09764 8.06929 2.23297C7.99724 2.3683 7.9252 2.50363 7.7811 2.70663C7.63701 2.63896 7.49291 2.5713 7.34882 2.50363C7.13268 2.3683 6.91653 2.30063 6.77244 2.30063C6.5563 2.23297 6.4122 2.23297 6.19606 2.23297C5.97992 2.23297 5.83583 2.23297 5.69173 2.23297C5.11535 2.23297 4.61102 2.3683 4.17874 2.5713C3.67441 2.70663 3.24213 2.97729 2.95394 3.31562C2.5937 3.65395 2.30551 4.05994 2.08937 4.5336C1.94528 5.00726 1.80118 5.48092 1.80118 5.95458C1.80118 6.42824 1.87323 6.9019 2.08937 7.37556C2.30551 7.78155 2.52165 8.18754 2.88189 8.52587C3.24213 8.8642 3.60236 9.13486 4.03465 9.33786C4.46693 9.54086 4.97126 9.67619 5.54764 9.67619C5.83583 9.67619 6.19606 9.67619 6.48425 9.60852C6.77244 9.54086 7.06063 9.47319 7.27677 9.40552C7.49291 9.33786 7.70905 9.27019 7.85315 9.13486C7.99724 9.0672 8.06929 8.99953 8.06929 8.99953L8.86181 10.6235Z" fill="white"/>
<path d="M16.9311 11.4355C16.9311 11.3678 16.859 11.2325 16.787 11.0295C16.7149 10.8265 16.6429 10.6235 16.4988 10.3529C16.3547 10.0822 16.2826 9.81154 16.1385 9.47321C15.9944 9.13488 15.8503 8.86422 15.7063 8.52589H11.9598L10.807 11.4355H9.00586C9.07791 11.3678 9.14995 11.0972 9.29405 10.7589C9.43814 10.4205 9.65428 9.94687 9.87043 9.47321C10.0866 8.93188 10.3748 8.39056 10.5909 7.7139C10.8791 7.10491 11.1673 6.42826 11.4555 5.7516C11.7437 5.07494 12.0318 4.39829 12.32 3.7893C12.6082 3.18031 12.8244 2.57132 13.0405 2.02999C13.2566 1.48867 13.4728 1.08267 13.6169 0.744344C13.761 0.406016 13.833 0.203019 13.9051 0.067688C13.9771 0.135354 14.0492 0.406016 14.1933 0.744344C14.3374 1.08267 14.5535 1.55633 14.7696 2.02999C14.9858 2.57132 15.274 3.11264 15.4901 3.7893C15.7783 4.39829 16.0665 5.07494 16.3547 5.7516C16.6429 6.42826 16.9311 7.10491 17.2192 7.7139C17.5074 8.32289 17.7236 8.93188 17.9397 9.47321C18.1559 10.0145 18.372 10.4205 18.5161 10.7589C18.6602 11.0972 18.7322 11.3002 18.8043 11.4355H16.9311ZM12.6082 7.03725H15.0578L13.9771 4.46595C13.9771 4.46595 13.9771 4.39829 13.9051 4.26296C13.833 4.12762 13.833 4.05996 13.833 3.92463C13.833 3.99229 13.761 4.12762 13.761 4.26296C13.761 4.39829 13.6889 4.46595 13.6889 4.46595L12.6082 7.03725Z" fill="white"/>
<path d="M26.3693 1.15031L25.7209 2.63895C25.2886 2.50362 24.8563 2.36829 24.4961 2.30063C24.0638 2.23296 23.7036 2.1653 23.3433 2.1653C22.767 2.1653 22.2626 2.30063 21.9024 2.50362C21.6142 2.77429 21.3981 3.04495 21.3981 3.45094C21.3981 3.78927 21.5422 4.05993 21.7583 4.19526C22.0465 4.39826 22.3347 4.60126 22.767 4.73659C23.1992 4.87192 23.5595 5.07492 24.0638 5.21025C24.4961 5.34558 24.9284 5.61624 25.3607 5.81924C25.7929 6.0899 26.0811 6.42823 26.3693 6.83422C26.6575 7.24022 26.7296 7.71388 26.7296 8.39053C26.7296 8.86419 26.6575 9.27018 26.4414 9.67618C26.2973 10.0822 26.0091 10.4205 25.6489 10.6912C25.2886 10.9618 24.8563 11.1648 24.352 11.3678C23.8477 11.5032 23.1992 11.5708 22.4788 11.5708C22.0465 11.5708 21.6142 11.5708 21.254 11.5031C20.8937 11.4355 20.6055 11.3678 20.3174 11.3002C20.0292 11.2325 19.813 11.0972 19.5969 11.0295C19.3807 10.8942 19.1646 10.8265 19.0205 10.6912L19.813 9.06719C20.2453 9.27019 20.6776 9.47318 21.1819 9.60851C21.6863 9.74384 22.0465 9.81151 22.4788 9.81151C22.6229 9.81151 22.9111 9.81151 23.1992 9.74384C23.4874 9.67618 23.7756 9.60851 23.9918 9.54085C24.28 9.40552 24.4961 9.27019 24.7122 9.06719C24.9284 8.86419 25.0004 8.66119 25.0004 8.32287C25.0004 7.98454 24.8563 7.71388 24.6402 7.44321C24.352 7.24022 24.0638 7.03722 23.6315 6.83422C23.1992 6.63123 22.839 6.49589 22.3347 6.2929C21.9024 6.15757 21.4701 5.95457 21.0378 5.68391C20.6055 5.48091 20.3174 5.14258 20.0292 4.80425C19.741 4.46593 19.6689 3.99227 19.6689 3.51861C19.6689 3.11261 19.741 2.77429 19.8851 2.43596C20.0292 2.09763 20.2453 1.7593 20.5335 1.48864C20.8217 1.21798 21.1819 0.947315 21.6863 0.811983C22.1185 0.608986 22.6949 0.541321 23.2713 0.541321C23.6315 0.541321 24.0638 0.541321 24.4241 0.608986C24.7843 0.676652 25.1445 0.744318 25.4327 0.811983C25.7209 0.879649 25.937 0.947314 26.1532 1.01498C26.2252 1.15031 26.3693 1.15031 26.3693 1.15031Z" fill="white"/>
<path d="M35.0149 11.4355C35.0149 11.3678 34.9429 11.2325 34.8709 11.0295C34.7988 10.8265 34.7268 10.6235 34.5827 10.3528C34.4386 10.0822 34.3665 9.81151 34.2224 9.47319C34.0783 9.13486 33.9342 8.8642 33.7901 8.52587H30.0437L28.8189 11.3678H27.0177C27.0897 11.3002 27.1618 11.0295 27.3059 10.6912C27.45 10.3528 27.6661 9.87918 27.8823 9.40552C28.0984 8.8642 28.3866 8.32287 28.6027 7.64621C28.8909 7.03722 29.1791 6.36057 29.4673 5.68391C29.7555 5.00726 30.0437 4.3306 30.3319 3.72161C30.6201 3.11262 30.8362 2.50363 31.0523 1.9623C31.2685 1.42098 31.4846 1.01498 31.6287 0.676656C31.7728 0.338328 31.8449 0.135331 31.9169 0C31.989 0.0676656 32.061 0.338328 32.2051 0.676656C32.3492 1.01498 32.5653 1.48864 32.7815 1.9623C32.9976 2.50363 33.2858 3.04495 33.502 3.72161C33.7901 4.3306 34.0783 5.00726 34.3665 5.68391C34.6547 6.36057 34.9429 7.03722 35.2311 7.64621C35.5193 8.2552 35.7354 8.8642 35.9516 9.40552C36.1677 9.94685 36.3838 10.3528 36.5279 10.6912C36.672 11.0295 36.7441 11.2325 36.8161 11.3678H35.0149V11.4355ZM30.6921 7.03722H33.1417L32.061 4.46593C32.061 4.46593 32.061 4.39826 31.989 4.26293C31.9169 4.1276 31.9169 4.05994 31.9169 3.92461C31.9169 3.99227 31.8449 4.1276 31.8449 4.26293C31.7728 4.39826 31.7728 4.46593 31.7728 4.46593L30.6921 7.03722Z" fill="white"/>
<path d="M38.041 0.067688C38.113 0.135354 38.185 0.270685 38.4012 0.541347C38.5453 0.81201 38.7614 1.08267 39.0496 1.421C39.3378 1.75933 39.5539 2.16532 39.9142 2.57132C40.2024 2.97731 40.5626 3.45097 40.8508 3.85696C41.139 4.39829 41.4272 4.80428 41.7874 5.21027C42.0756 5.61627 42.3638 6.02226 42.652 6.36059C42.8681 6.69892 43.0843 6.96958 43.3004 7.24024C43.4445 7.44324 43.5886 7.64624 43.5886 7.7139C43.5886 7.7139 43.7327 7.57857 43.8768 7.30791C44.0209 7.10491 44.237 6.83425 44.4532 6.49592C44.6693 6.15759 44.9575 5.7516 45.2457 5.34561C45.5339 4.93961 45.8941 4.46595 46.1823 3.99229C46.5425 3.51863 46.8307 3.11264 47.1189 2.63898C47.4071 2.23299 47.6953 1.82699 47.9835 1.421C48.2717 1.08267 48.4878 0.744344 48.6319 0.541347C48.848 0.33835 48.9921 0.135354 49.0642 0.067688V11.4355H47.1189V5.88693C47.1189 5.81927 47.1189 5.7516 47.1189 5.61627C47.1189 5.5486 47.1189 5.48094 47.1189 5.48094L43.5165 10.6912C43.4445 10.6235 43.3725 10.4882 43.1563 10.2175C42.9402 9.94687 42.724 9.60854 42.4358 9.27021C42.1476 8.93188 41.8595 8.52589 41.5713 8.05223C41.2831 7.64624 40.9949 7.24024 40.7067 6.90192C40.4185 6.56359 40.2024 6.22526 40.0583 5.9546C39.9142 5.68393 39.8421 5.48094 39.8421 5.48094C39.8421 5.48094 39.8421 5.5486 39.8421 5.61627C39.8421 5.68393 39.8421 5.81927 39.8421 5.88693V11.4355H38.041V0.067688Z" fill="white"/>
<path d="M51.5138 11.4355V0.541321H58.7185V2.1653H53.315V5.07492H58.1421V6.83422H53.315V9.74385H58.9347V11.4355H51.5138Z" fill="white"/>
<path d="M70.3902 0.541347V11.9092C70.3181 11.8415 70.174 11.6385 69.9579 11.4355C69.7418 11.1648 69.4536 10.8942 69.0933 10.5559C68.7331 10.2175 68.3729 9.8792 67.9406 9.47321C67.5083 9.06721 67.076 8.66122 66.6437 8.25523C66.2114 7.84923 65.7792 7.44324 65.3469 7.03725C64.9146 6.63125 64.5544 6.29292 64.1941 5.9546C63.8339 5.61627 63.5457 5.34561 63.3296 5.07494C63.1134 4.87195 62.9693 4.66895 62.8973 4.60128C62.8973 4.60128 62.8252 4.53362 62.7532 4.46595C62.6811 4.39829 62.6091 4.33062 62.6091 4.26296L62.6811 4.73662V11.5032H60.8799V0.067688C60.952 0.135354 61.0961 0.33835 61.3122 0.541347C61.5284 0.744344 61.8166 1.08267 62.1768 1.35333C62.537 1.69166 62.8973 2.02999 63.3296 2.43598C63.7618 2.84198 64.1941 3.24797 64.6264 3.65397C65.0587 4.05996 65.491 4.46595 65.9233 4.87195C66.2835 5.27794 66.6437 5.61627 67.004 5.9546C67.3642 6.29292 67.6524 6.56359 67.8685 6.76658C68.0847 6.96958 68.2288 7.17258 68.3008 7.24024L68.589 7.64624L68.517 7.10491V0.541347H70.3902Z" fill="white"/>
<path d="M79.396 0.541321V2.30063H76.7303V11.4355H74.9291V2.30063H72.3354V0.541321H79.396Z" fill="white"/>
<path d="M80.3327 6.02225C80.3327 5.27793 80.4768 4.53361 80.765 3.85695C81.0532 3.1803 81.4855 2.57131 81.9898 2.09765C82.4941 1.55632 83.0705 1.21799 83.7189 0.879665C84.3673 0.609003 85.0878 0.406006 85.8803 0.406006C86.6008 0.406006 87.3213 0.541337 88.0418 0.879665C88.6902 1.15033 89.3386 1.55632 89.8429 2.09765C90.3473 2.63897 90.7796 3.1803 91.0677 3.85695C91.3559 4.53361 91.5 5.27793 91.5 6.02225C91.5 6.76657 91.3559 7.5109 91.0677 8.18755C90.7796 8.86421 90.3473 9.4732 89.8429 9.94686C89.3386 10.4205 88.7622 10.8265 88.0418 11.1648C87.3933 11.4355 86.6729 11.5708 85.8803 11.5708C85.0878 11.5708 84.3673 11.4355 83.7189 11.1648C83.0705 10.8942 82.4941 10.4882 81.9898 9.94686C81.4855 9.4732 81.1252 8.86421 80.765 8.18755C80.4768 7.5109 80.3327 6.76657 80.3327 6.02225ZM82.1339 6.02225C82.1339 6.56358 82.2059 7.03724 82.4221 7.5109C82.6382 7.98456 82.8544 8.39055 83.2146 8.72888C83.5748 9.06721 83.9351 9.33787 84.4394 9.54086C84.8717 9.74386 85.376 9.81153 85.8803 9.81153C86.3847 9.81153 86.889 9.74386 87.3213 9.54086C87.7536 9.33787 88.1859 9.06721 88.474 8.72888C88.8343 8.39055 89.0504 7.98456 89.2666 7.5109C89.4827 7.03724 89.5548 6.56358 89.5548 6.02225C89.5548 5.48093 89.4827 5.00727 89.2666 4.53361C89.0504 4.05995 88.8343 3.65396 88.474 3.31563C88.1138 2.9773 87.7536 2.70664 87.3213 2.50364C86.889 2.30064 86.3847 2.23298 85.8803 2.23298C85.376 2.23298 84.8717 2.30064 84.4394 2.50364C84.0071 2.70664 83.5748 2.9773 83.2866 3.31563C82.9264 3.65396 82.7103 4.05995 82.4941 4.53361C82.278 5.00727 82.1339 5.48093 82.1339 6.02225Z" fill="white"/>
<path d="M22.6949 40.3964C22.4067 40.5994 21.9744 40.87 21.4701 41.1407C20.9657 41.4114 20.3173 41.682 19.5248 41.9527C18.8043 42.2234 17.9398 42.4264 17.0032 42.5617C16.0665 42.7647 15.0579 42.8323 14.0492 42.8323C11.8878 42.8323 9.94252 42.494 8.21339 41.8174C6.48425 41.073 5.04331 40.1257 3.8185 38.9077C2.5937 37.6898 1.65709 36.2011 1.00866 34.5095C0.360236 32.8178 0 31.0585 0 29.1639C0 27.0663 0.288189 25.1716 1.08071 23.4123C1.80118 21.653 2.80984 20.0967 4.10669 18.8111C5.40354 17.5254 6.91654 16.5104 8.57362 15.7661C10.3028 15.0218 12.1039 14.6834 14.1213 14.6158C14.8417 14.6158 15.6343 14.6834 16.4268 14.7511C17.2193 14.8864 17.9398 15.0218 18.5882 15.1571C19.2366 15.2924 19.885 15.4954 20.3894 15.7661C20.8937 15.9691 21.2539 16.2398 21.5421 16.4428C21.326 16.7811 21.1819 17.1194 21.0378 17.3224C20.8937 17.5254 20.8217 17.7961 20.6776 17.9991C20.5335 18.2697 20.3894 18.5404 20.2453 18.8111C20.1012 19.1494 19.885 19.5554 19.5969 20.0967C19.3087 19.8937 18.9484 19.7584 18.5161 19.5554C18.0839 19.42 17.6516 19.2847 17.1472 19.217C16.715 19.1494 16.2106 19.0817 15.7063 19.014C15.202 18.9464 14.7697 18.9464 14.4094 18.9464C12.9685 18.9464 11.6717 19.217 10.5189 19.826C9.36614 20.3674 8.28543 21.1117 7.42087 21.9913C6.48425 22.9387 5.83583 23.9536 5.3315 25.104C4.82717 26.2543 4.61102 27.4723 4.61102 28.6902C4.61102 29.9082 4.89921 31.0585 5.3315 32.2088C5.83583 33.3592 6.48425 34.3741 7.34882 35.2538C8.21339 36.1335 9.22205 36.8101 10.3748 37.3514C11.5276 37.8928 12.8244 38.0958 14.2654 38.0958C15.0579 38.0958 15.8504 37.9604 16.5709 37.8251C17.2913 37.6221 18.0118 37.4868 18.5882 37.2161C19.1646 37.0131 19.6689 36.8101 20.0291 36.6071C20.3894 36.4041 20.6055 36.2688 20.6055 36.2011L22.6949 40.3964Z" fill="white"/>
<path d="M44.3811 28.8256C44.3811 26.8633 44.7413 25.0363 45.5339 23.3447C46.2543 21.5854 47.263 20.0967 48.5598 18.8111C49.8567 17.5254 51.3697 16.5104 53.0268 15.6984C54.7559 14.9541 56.5571 14.5481 58.5024 14.5481C60.4476 14.5481 62.2488 14.9541 63.978 15.6984C65.7071 16.4428 67.2201 17.4577 68.5169 18.8111C69.8138 20.0967 70.8224 21.5854 71.615 23.3447C72.3354 25.104 72.7677 26.9309 72.7677 28.8256C72.7677 30.7879 72.4075 32.6148 71.615 34.3065C70.8945 35.9981 69.8138 37.5544 68.5169 38.7724C67.2201 40.0581 65.7071 41.0731 63.978 41.8174C62.2488 42.5617 60.4476 42.9 58.5024 42.9C56.5571 42.9 54.6839 42.5617 53.0268 41.8174C51.2976 41.0731 49.7846 40.0581 48.5598 38.7724C47.263 37.4868 46.2543 35.9981 45.5339 34.3065C44.7413 32.6148 44.3811 30.7879 44.3811 28.8256ZM49.0642 28.8256C49.0642 30.1789 49.2803 31.4645 49.7846 32.6148C50.289 33.7652 50.9374 34.8478 51.874 35.7275C52.7386 36.6071 53.7472 37.2838 54.9 37.8251C56.0528 38.3664 57.2776 38.5694 58.6465 38.5694C59.9433 38.5694 61.1681 38.2988 62.3209 37.8251C63.4736 37.2838 64.4823 36.6071 65.3469 35.7275C66.2114 34.8478 66.8598 33.8328 67.3642 32.6148C67.8685 31.4645 68.0846 30.1789 68.0846 28.8256C68.0846 27.4723 67.7965 26.1866 67.2921 25.0363C66.7878 23.886 66.0673 22.8033 65.2028 21.9237C64.4102 21.044 63.4016 20.3674 62.2488 19.826C61.0961 19.2847 59.8713 19.0817 58.5024 19.0817C57.2055 19.0817 55.9807 19.3524 54.7559 19.826C53.6032 20.3674 52.5945 21.044 51.7299 21.9237C50.8654 22.8033 50.2169 23.8183 49.7126 25.0363C49.2803 26.1866 49.0642 27.4723 49.0642 28.8256Z" fill="#CCFBFE"/>
<path d="M79.5402 38.2311V14.2774H74.785V42.7647H91.3559V38.2311H79.5402Z" fill="white"/>
<path d="M61.4563 28.8255H88.1138" stroke="white" stroke-width="3" stroke-miterlimit="10" stroke-linecap="round"/>
<path d="M14.6256 28.8255H23.9918" stroke="white" stroke-width="3" stroke-miterlimit="10" stroke-linecap="round"/>
<path d="M88.8342 28.7579L85.2319 25.3069" stroke="white" stroke-width="3.1763" stroke-miterlimit="10" stroke-linecap="round"/>
<path d="M88.9063 28.6902L85.2319 32.0735" stroke="white" stroke-width="3.1763" stroke-miterlimit="10" stroke-linecap="round"/>
<path d="M20.5334 28.8256C20.5334 26.8633 20.8937 25.0363 21.6862 23.3447C22.4067 21.5854 23.4153 20.0967 24.7122 18.8111C26.009 17.5254 27.522 16.5104 29.1791 15.6984C30.9083 14.9541 32.7094 14.5481 34.6547 14.5481C36.6 14.5481 38.4012 14.9541 40.1303 15.6984C41.8594 16.4428 43.3724 17.4577 44.6693 18.8111C45.9661 20.0967 46.9748 21.5854 47.7673 23.3447C48.4878 25.104 48.9201 26.9309 48.9201 28.8256C48.9201 30.7879 48.5598 32.6148 47.7673 34.3065C47.0468 35.9981 45.9661 37.5544 44.6693 38.7724C43.3724 40.0581 41.8594 41.0731 40.1303 41.8174C38.4012 42.5617 36.6 42.9 34.6547 42.9C32.7094 42.9 30.8362 42.5617 29.1791 41.8174C27.45 41.0731 25.937 40.0581 24.7122 38.7724C23.4153 37.4868 22.4067 35.9981 21.6862 34.3065C20.9657 32.6148 20.5334 30.7879 20.5334 28.8256ZM25.2165 28.8256C25.2165 30.1789 25.4327 31.4645 25.937 32.6148C26.4413 33.7652 27.0897 34.8478 28.0264 35.7275C28.8909 36.6071 29.8996 37.2838 31.0523 37.8251C32.2051 38.3664 33.4299 38.5694 34.7988 38.5694C36.0957 38.5694 37.3205 38.2988 38.4732 37.8251C39.626 37.2838 40.6346 36.6071 41.4992 35.7275C42.3638 34.8478 43.0122 33.8328 43.5165 32.6148C44.0209 31.4645 44.237 30.1789 44.237 28.8256C44.237 27.4723 43.9488 26.1866 43.4445 25.0363C42.9401 23.886 42.2197 22.8033 41.3551 21.9237C40.6346 21.044 39.626 20.3674 38.4732 19.826C37.3205 19.2847 36.0957 19.0817 34.7268 19.0817C33.4299 19.0817 32.2051 19.3524 30.9803 19.826C29.8275 20.3674 28.8189 21.044 27.9543 21.9237C27.0897 22.8033 26.4413 23.8183 25.937 25.0363C25.5047 26.1866 25.2165 27.4723 25.2165 28.8256Z" fill="#CCFBFE"/>
</g>
<defs>
<clipPath id="clip0_1_26">
<rect width="91.5" height="42.9" fill="white"/>
</clipPath>
</defs>
</svg>
