<svg version="1.1"
	 xmlns="http://www.w3.org/2000/svg" xmlns:xlink="http://www.w3.org/1999/xlink" xmlns:a="http://ns.adobe.com/AdobeSVGViewerExtensions/3.0/"
	 x="0px" y="0px" width="53.3px" height="25px" viewBox="0 0 53.3 25" enable-background="new 0 0 53.3 25" xml:space="preserve">
<defs>
</defs>
<g>
	<g>
		<path fill="#30343F" d="M5.2,6.2C5.1,6.2,5,6.3,4.9,6.3C4.8,6.4,4.6,6.4,4.4,6.5C4.3,6.6,4.1,6.6,3.9,6.6c-0.2,0-0.4,0.1-0.7,0.1
			c-0.5,0-0.9-0.1-1.3-0.3C1.4,6.3,1.1,6,0.8,5.7c-0.3-0.3-0.5-0.6-0.6-1C0.1,4.3,0,3.9,0,3.5C0,3,0.1,2.6,0.3,2.2
			c0.2-0.4,0.4-0.8,0.7-1c0.3-0.3,0.6-0.5,1-0.7c0.4-0.2,0.8-0.2,1.3-0.2c0.2,0,0.3,0,0.5,0c0.2,0,0.3,0.1,0.5,0.1
			c0.2,0,0.3,0.1,0.4,0.1C4.8,0.5,4.9,0.6,5,0.7C4.9,0.7,4.9,0.8,4.9,0.9C4.8,0.9,4.8,1,4.8,1c0,0.1-0.1,0.1-0.1,0.2
			c0,0.1-0.1,0.2-0.2,0.3c-0.1,0-0.2-0.1-0.3-0.1c-0.1,0-0.2-0.1-0.3-0.1c-0.1,0-0.2,0-0.3,0c-0.1,0-0.2,0-0.3,0
			C3,1.2,2.7,1.3,2.4,1.4C2.1,1.5,1.9,1.7,1.7,1.9C1.5,2.1,1.4,2.3,1.2,2.6C1.1,2.9,1.1,3.1,1.1,3.4c0,0.3,0.1,0.5,0.2,0.8
			c0.1,0.3,0.3,0.5,0.5,0.7c0.2,0.2,0.4,0.4,0.7,0.5c0.3,0.1,0.6,0.2,0.9,0.2c0.2,0,0.4,0,0.5-0.1c0.2,0,0.3-0.1,0.5-0.1
			c0.1,0,0.2-0.1,0.3-0.1c0.1,0,0.1-0.1,0.1-0.1L5.2,6.2z"/>
		<path fill="#30343F" d="M9.9,6.6c0,0,0-0.1-0.1-0.2c0-0.1-0.1-0.2-0.2-0.4C9.6,5.9,9.5,5.7,9.4,5.5C9.3,5.3,9.3,5.2,9.2,5H7
			L6.3,6.6H5.2c0-0.1,0.1-0.2,0.2-0.4C5.5,6,5.6,5.8,5.7,5.5c0.1-0.3,0.3-0.6,0.4-1c0.2-0.4,0.3-0.8,0.5-1.1C6.8,2.9,7,2.5,7.2,2.2
			c0.2-0.4,0.3-0.7,0.4-1c0.1-0.3,0.2-0.6,0.3-0.8C8,0.2,8.1,0.1,8.1,0c0,0.1,0.1,0.2,0.2,0.4c0.1,0.2,0.2,0.5,0.3,0.8
			c0.1,0.3,0.3,0.6,0.4,1c0.2,0.4,0.3,0.8,0.5,1.1C9.7,3.7,9.8,4.1,10,4.5c0.2,0.4,0.3,0.7,0.4,1c0.1,0.3,0.2,0.6,0.3,0.8
			c0.1,0.2,0.1,0.3,0.2,0.4H9.9z M7.4,4.1h1.4L8.2,2.5c0,0,0,0,0-0.1c0-0.1,0-0.1-0.1-0.2c0,0.1,0,0.1-0.1,0.2c0,0.1,0,0.1,0,0.1
			L7.4,4.1z"/>
		<path fill="#30343F" d="M15.4,0.6L15,1.5c-0.2-0.1-0.5-0.2-0.7-0.2c-0.2-0.1-0.5-0.1-0.7-0.1c-0.4,0-0.6,0.1-0.8,0.2
			c-0.2,0.1-0.3,0.3-0.3,0.5c0,0.2,0.1,0.3,0.2,0.5c0.2,0.1,0.3,0.2,0.6,0.3C13.5,2.8,13.8,2.9,14,3c0.3,0.1,0.5,0.2,0.8,0.4
			C15,3.5,15.2,3.7,15.4,4c0.2,0.2,0.2,0.5,0.2,0.9c0,0.3-0.1,0.5-0.2,0.8C15.3,5.8,15.2,6,15,6.2c-0.2,0.2-0.5,0.3-0.8,0.4
			c-0.3,0.1-0.7,0.1-1.1,0.1c-0.3,0-0.5,0-0.7-0.1c-0.2,0-0.4-0.1-0.6-0.1s-0.3-0.1-0.4-0.2c-0.1-0.1-0.2-0.1-0.3-0.2l0.5-0.9
			c0.2,0.1,0.5,0.2,0.8,0.3c0.3,0.1,0.5,0.1,0.7,0.1c0.1,0,0.2,0,0.4,0c0.2,0,0.3-0.1,0.5-0.1c0.2-0.1,0.3-0.2,0.4-0.3
			c0.1-0.1,0.2-0.3,0.2-0.4c0-0.2-0.1-0.4-0.2-0.5C14.2,4.2,14,4.1,13.7,4c-0.2-0.1-0.5-0.2-0.8-0.3c-0.3-0.1-0.5-0.2-0.8-0.4
			C12,3.2,11.8,3,11.7,2.8c-0.2-0.2-0.2-0.5-0.2-0.8c0-0.2,0-0.4,0.1-0.6C11.6,1.2,11.8,1,12,0.8c0.2-0.2,0.4-0.3,0.7-0.4
			c0.3-0.1,0.6-0.2,0.9-0.2c0.2,0,0.4,0,0.7,0.1c0.2,0,0.4,0.1,0.6,0.1c0.2,0,0.3,0.1,0.4,0.1C15.3,0.6,15.4,0.6,15.4,0.6z"/>
		<path fill="#30343F" d="M20.4,6.6c0,0,0-0.1-0.1-0.2c0-0.1-0.1-0.2-0.2-0.4c-0.1-0.2-0.1-0.3-0.2-0.5c-0.1-0.2-0.2-0.4-0.2-0.6
			h-2.2l-0.7,1.7h-1.1c0-0.1,0.1-0.2,0.2-0.4C16,6,16.1,5.8,16.3,5.5c0.1-0.3,0.3-0.6,0.4-1c0.2-0.4,0.3-0.8,0.5-1.1
			c0.2-0.4,0.3-0.8,0.5-1.1c0.2-0.4,0.3-0.7,0.4-1c0.1-0.3,0.2-0.6,0.3-0.8c0.1-0.2,0.1-0.3,0.2-0.4c0,0.1,0.1,0.2,0.2,0.4
			c0.1,0.2,0.2,0.5,0.3,0.8c0.1,0.3,0.3,0.6,0.4,1c0.2,0.4,0.3,0.8,0.5,1.1c0.2,0.4,0.3,0.8,0.5,1.1c0.2,0.4,0.3,0.7,0.4,1
			c0.1,0.3,0.2,0.6,0.3,0.8c0.1,0.2,0.1,0.3,0.2,0.4H20.4z M17.9,4.1h1.4l-0.6-1.5c0,0,0,0,0-0.1c0-0.1,0-0.1-0.1-0.2
			c0,0.1,0,0.1-0.1,0.2c0,0.1,0,0.1,0,0.1L17.9,4.1z"/>
		<path fill="#30343F" d="M22.2,0c0,0,0.1,0.1,0.2,0.3c0.1,0.1,0.2,0.3,0.4,0.5c0.1,0.2,0.3,0.4,0.5,0.7c0.2,0.2,0.4,0.5,0.6,0.8
			C24,2.5,24.2,2.8,24.4,3c0.2,0.2,0.3,0.5,0.5,0.7c0.1,0.2,0.3,0.4,0.4,0.5c0.1,0.1,0.2,0.2,0.2,0.3c0,0,0.1-0.1,0.2-0.2
			c0.1-0.1,0.2-0.3,0.4-0.5c0.1-0.2,0.3-0.4,0.5-0.7c0.2-0.3,0.4-0.5,0.6-0.8c0.2-0.3,0.4-0.5,0.6-0.8C27.7,1.3,27.9,1,28,0.8
			c0.2-0.2,0.3-0.4,0.4-0.5C28.5,0.1,28.6,0,28.6,0v6.6h-1.1V3.4c0,0,0-0.1,0-0.1c0-0.1,0-0.1,0-0.1l-2.1,3c0,0-0.1-0.1-0.2-0.3
			c-0.1-0.2-0.2-0.3-0.4-0.6c-0.2-0.2-0.3-0.4-0.5-0.7c-0.2-0.2-0.3-0.5-0.5-0.7c-0.2-0.2-0.3-0.4-0.4-0.5c-0.1-0.1-0.2-0.2-0.2-0.3
			c0,0,0,0,0,0.1c0,0.1,0,0.1,0,0.1v3.2h-1.1V0z"/>
		<path fill="#30343F" d="M30.1,6.6V0.3h4.2v1h-3.1V3h2.8v1h-2.8v1.7h3.3v1H30.1z"/>
		<path fill="#30343F" d="M41,0.3v6.6c0-0.1-0.1-0.1-0.3-0.3c-0.1-0.1-0.3-0.3-0.5-0.5c-0.2-0.2-0.4-0.4-0.7-0.6
			c-0.2-0.2-0.5-0.5-0.8-0.7c-0.3-0.2-0.5-0.5-0.7-0.7c-0.2-0.2-0.5-0.4-0.7-0.6c-0.2-0.2-0.4-0.4-0.5-0.5c-0.1-0.1-0.2-0.2-0.3-0.3
			c0,0,0,0-0.1-0.1c0,0-0.1-0.1-0.1-0.1l0,0.3v3.9h-1.1V0c0,0.1,0.1,0.1,0.3,0.3c0.1,0.1,0.3,0.3,0.5,0.5c0.2,0.2,0.4,0.4,0.7,0.6
			c0.2,0.2,0.5,0.5,0.8,0.7c0.3,0.2,0.5,0.5,0.7,0.7c0.2,0.2,0.5,0.4,0.7,0.6c0.2,0.2,0.4,0.3,0.5,0.5c0.1,0.1,0.2,0.2,0.3,0.3
			L40,4.4l0-0.3V0.3H41z"/>
		<path fill="#30343F" d="M46.3,0.3v1h-1.6v5.3h-1.1V1.3h-1.5v-1H46.3z"/>
		<path fill="#30343F" d="M46.8,3.5c0-0.4,0.1-0.9,0.3-1.3c0.2-0.4,0.4-0.7,0.7-1c0.3-0.3,0.6-0.5,1-0.7c0.4-0.2,0.8-0.3,1.3-0.3
			c0.4,0,0.9,0.1,1.3,0.3c0.4,0.2,0.7,0.4,1,0.7c0.3,0.3,0.5,0.6,0.7,1c0.2,0.4,0.3,0.8,0.3,1.3c0,0.4-0.1,0.9-0.3,1.3
			c-0.2,0.4-0.4,0.7-0.7,1c-0.3,0.3-0.6,0.5-1,0.7c-0.4,0.2-0.8,0.3-1.3,0.3c-0.4,0-0.9-0.1-1.3-0.3c-0.4-0.2-0.7-0.4-1-0.7
			c-0.3-0.3-0.5-0.6-0.7-1C46.9,4.3,46.8,3.9,46.8,3.5z M47.9,3.5c0,0.3,0.1,0.6,0.2,0.9c0.1,0.3,0.3,0.5,0.5,0.7
			c0.2,0.2,0.4,0.4,0.7,0.5c0.3,0.1,0.5,0.2,0.9,0.2c0.3,0,0.6-0.1,0.8-0.2c0.3-0.1,0.5-0.3,0.7-0.5c0.2-0.2,0.3-0.4,0.5-0.7
			c0.1-0.3,0.2-0.6,0.2-0.9c0-0.3-0.1-0.6-0.2-0.9c-0.1-0.3-0.3-0.5-0.5-0.7c-0.2-0.2-0.4-0.4-0.7-0.5c-0.3-0.1-0.5-0.2-0.8-0.2
			c-0.3,0-0.6,0.1-0.8,0.2c-0.3,0.1-0.5,0.3-0.7,0.5c-0.2,0.2-0.3,0.4-0.5,0.7C48,2.9,47.9,3.2,47.9,3.5z"/>
	</g>
	<path fill="#30343F" d="M13.2,23.5c-0.2,0.1-0.4,0.3-0.7,0.4c-0.3,0.2-0.7,0.3-1.1,0.5c-0.4,0.1-0.9,0.3-1.5,0.4
		c-0.5,0.1-1.1,0.2-1.7,0.2c-1.3,0-2.4-0.2-3.4-0.6c-1-0.4-1.9-1-2.6-1.7C1.5,21.9,1,21,0.6,20.1C0.2,19.1,0,18,0,17
		c0-1.2,0.2-2.3,0.6-3.3c0.4-1,1-1.9,1.8-2.7C3.1,10.2,4,9.6,5,9.2c1-0.4,2.1-0.6,3.2-0.7c0.4,0,0.9,0,1.3,0.1
		c0.4,0.1,0.9,0.1,1.3,0.2c0.4,0.1,0.7,0.2,1.1,0.3c0.3,0.1,0.5,0.3,0.7,0.4c-0.1,0.2-0.2,0.4-0.3,0.5c-0.1,0.1-0.1,0.3-0.2,0.4
		c-0.1,0.1-0.2,0.3-0.3,0.5c-0.1,0.2-0.2,0.4-0.4,0.7c-0.2-0.1-0.4-0.2-0.6-0.3c-0.3-0.1-0.5-0.2-0.8-0.2c-0.3,0-0.5-0.1-0.8-0.1
		c-0.3,0-0.5,0-0.7,0c-0.8,0-1.6,0.2-2.3,0.5c-0.7,0.3-1.3,0.7-1.8,1.2c-0.5,0.5-0.9,1.1-1.2,1.8c-0.3,0.7-0.4,1.4-0.4,2.1
		c0,0.7,0.2,1.4,0.4,2.1c0.3,0.7,0.7,1.2,1.2,1.8c0.5,0.5,1.1,0.9,1.8,1.2c0.7,0.3,1.4,0.5,2.3,0.4c0.5,0,0.9-0.1,1.4-0.2
		c0.4-0.1,0.8-0.2,1.2-0.3c0.3-0.1,0.6-0.2,0.8-0.4c0.2-0.1,0.3-0.2,0.3-0.2L13.2,23.5z"/>
	<path fill="#30343F" d="M14.7,16.8c0,0.8,0.1,1.5,0.4,2.2c0.3,0.7,0.7,1.3,1.2,1.8c0.5,0.5,1.1,0.9,1.8,1.2
		c0.7,0.3,1.4,0.4,2.2,0.4c0.8,0,1.5-0.1,2.1-0.4c0.7-0.3,1.3-0.7,1.8-1.2c0.5-0.5,0.9-1.1,1.2-1.8c0.3-0.7,0.4-1.4,0.4-2.2
		c0-0.8-0.1-1.5-0.4-2.2c-0.3-0.7-0.7-1.3-1.2-1.8c-0.5-0.5-1.1-0.9-1.8-1.2c-0.7-0.3-1.4-0.4-2.2-0.4c-0.8,0-1.5,0.1-2.2,0.4
		c-0.7,0.3-1.3,0.7-1.8,1.2c-0.5,0.5-0.9,1.1-1.2,1.8C14.9,15.2,14.7,16,14.7,16.8z M12,16.8c0-1.1,0.2-2.2,0.7-3.2
		c0.4-1,1-1.9,1.8-2.6c0.7-0.8,1.6-1.4,2.6-1.8c1-0.4,2.1-0.7,3.2-0.7c1.1,0,2.2,0.2,3.2,0.7c1,0.4,1.9,1,2.6,1.8
		c0.8,0.8,1.4,1.6,1.8,2.6c0.4,1,0.7,2.1,0.7,3.2c0,1.1-0.2,2.2-0.7,3.2c-0.4,1-1,1.9-1.8,2.6c-0.8,0.7-1.6,1.3-2.6,1.8
		c-1,0.4-2.1,0.6-3.2,0.6c-1.1,0-2.2-0.2-3.2-0.6c-1-0.4-1.9-1-2.6-1.8c-0.7-0.7-1.3-1.6-1.8-2.6C12.2,19,12,17.9,12,16.8z"/>
	<path fill="#30343F" d="M25.9,16.8c0-1.1,0.2-2.2,0.7-3.2c0.4-1,1-1.9,1.8-2.6c0.7-0.8,1.6-1.4,2.6-1.8c1-0.4,2.1-0.7,3.2-0.7
		c1.1,0,2.2,0.2,3.2,0.7c1,0.4,1.9,1,2.6,1.8c0.8,0.8,1.4,1.6,1.8,2.6c0.4,1,0.7,2.1,0.7,3.2c0,1.1-0.2,2.2-0.7,3.2
		c-0.4,1-1,1.9-1.8,2.6c-0.8,0.7-1.6,1.3-2.6,1.8c-1,0.4-2.1,0.6-3.2,0.6c-1.1,0-2.2-0.2-3.2-0.6c-1-0.4-1.9-1-2.6-1.8
		C27.5,21.8,27,21,26.5,20C26.1,19,25.9,17.9,25.9,16.8z M28.6,16.8c0,0.8,0.1,1.5,0.4,2.2c0.3,0.7,0.7,1.3,1.2,1.8s1.1,0.9,1.8,1.2
		c0.7,0.3,1.4,0.4,2.2,0.4c0.8,0,1.5-0.1,2.1-0.4c0.7-0.3,1.3-0.7,1.8-1.2c0.5-0.5,0.9-1.1,1.2-1.8c0.3-0.7,0.4-1.4,0.4-2.2
		c0-0.8-0.1-1.5-0.4-2.2c-0.3-0.7-0.7-1.3-1.2-1.8c-0.5-0.5-1.1-0.9-1.8-1.2c-0.7-0.3-1.4-0.4-2.2-0.4c-0.8,0-1.5,0.1-2.2,0.4
		c-0.7,0.3-1.3,0.7-1.8,1.2c-0.5,0.5-0.9,1.1-1.2,1.8C28.7,15.2,28.6,16,28.6,16.8z"/>
	<polygon fill="#30343F" points="46.4,22.2 46.4,8.3 43.6,8.3 43.6,24.9 53.3,24.9 53.3,22.2 	"/>
	<line fill="#30343F" stroke="#30343F" stroke-linecap="round" stroke-miterlimit="10" x1="36" y1="17.1" x2="51" y2="17.1"/>
	<line fill="#30343F" stroke="#30343F" stroke-linecap="round" stroke-miterlimit="10" x1="9" y1="17.1" x2="14" y2="17.1"/>
	
		<line fill="#30343F" stroke="#30343F" stroke-width="1.2926" stroke-linecap="round" stroke-miterlimit="10" x1="51.8" y1="17.3" x2="49.7" y2="15.3"/>
	
		<line fill="#30343F" stroke="#30343F" stroke-width="1.2926" stroke-linecap="round" stroke-miterlimit="10" x1="51.8" y1="17.3" x2="49.7" y2="19.2"/>
</g>
</svg>