<svg width="40" height="40" viewBox="0 0 40 40" fill="none" xmlns="http://www.w3.org/2000/svg">
<g clip-path="url(#clip0_32_26)">
<path d="M36.5833 31.77C36.3267 31.77 36.0667 31.695 35.8417 31.545C35.2267 31.1283 35.0667 30.295 35.4667 29.695C36.6967 27.8717 37.3417 25.7267 37.3417 23.4967C37.3417 21.2667 36.6967 19.1217 35.4667 17.295C35.0517 16.6817 35.225 15.8517 35.8267 15.4517C36.4517 15.0367 37.2767 15.2083 37.6733 15.8083C39.2017 18.0833 40 20.7583 40 23.5083C40 26.255 39.2017 28.9317 37.6733 31.2067C37.4483 31.605 37.0233 31.805 36.5983 31.805L36.5833 31.77ZM32.7667 29.6133C32.5117 29.6133 32.2533 29.5383 32.025 29.3817C31.41 28.9833 31.2533 28.1583 31.6667 27.5583C32.4817 26.3567 32.9117 24.9833 32.9117 23.5083C32.9117 22.0833 32.4817 20.6833 31.6667 19.4567C31.2533 18.8567 31.41 18.0333 32.025 17.6317C32.64 17.23 33.4533 17.3817 33.8683 18.0067C34.9833 19.6567 35.57 21.5817 35.57 23.53C35.57 25.5317 34.9833 27.43 33.8683 29.055C33.625 29.455 33.1917 29.655 32.7667 29.655V29.6133ZM26.55 17.6917C26.0267 12.3633 21.5233 8.19333 16.05 8.19333C11.515 8.19333 7.5 11.1067 6.05833 15.3317C2.64667 15.835 0 18.7817 0 22.3333C0 26.24 3.18667 29.4233 7.1 29.4233H25.28C28.5533 29.4233 31.2233 26.7667 31.2233 23.495C31.2233 20.6517 29.2233 18.28 26.5483 17.695V17.6917H26.55ZM25.28 26.7683H7.105C4.66167 26.7683 2.65667 24.7833 2.65667 22.3383C2.65667 19.8967 4.645 17.9083 7.105 17.9083C8.28833 17.9083 9.40667 18.3833 10.2483 19.21C10.7483 19.7333 11.6 19.7333 12.1233 19.21C12.6233 18.7083 12.6233 17.8583 12.1233 17.335C11.1983 16.4317 10.0717 15.7833 8.84833 15.4833C10.0983 12.7083 12.8983 10.86 16.0233 10.86C20.3717 10.86 23.9233 14.4083 23.9233 18.7567C23.9233 19.61 23.7983 20.4333 23.5233 21.2333C23.2983 21.9333 23.6733 22.6817 24.3733 22.9333C24.4967 22.9833 24.6483 23.0083 24.7733 23.0083C25.3233 23.0083 25.8483 22.6567 26.0233 22.1083C26.1983 21.5833 26.3233 21.0583 26.3983 20.5083C27.6217 20.9833 28.4983 22.1833 28.4983 23.5583C28.4983 25.385 27.0233 26.8567 25.2233 26.8567L25.28 26.7683Z" fill="black"/>
</g>
<defs>
<clipPath id="clip0_32_26">
<rect width="40" height="40" fill="white"/>
</clipPath>
</defs>
</svg>
