<svg width="21" height="12" viewBox="0 0 21 12" fill="none" xmlns="http://www.w3.org/2000/svg">
<path d="M20 5.99951C19.9939 5.76067 19.9228 5.61671 19.8317 5.51342L14.8317 1.29147C14.5955 0.954801 14.0603 0.901524 13.7257 1.1749C13.3911 1.44828 13.3733 1.95945 13.6418 2.26364L17.6202 5.22177H2.76923C2.34438 5.22177 2 5.56997 2 5.99951C2 6.42906 2.34438 6.77726 2.76923 6.77726H17.6202L13.6418 9.73536C13.3373 10.0426 13.4238 10.5815 13.7452 10.8706C13.9927 11.0931 14.6522 11.0222 14.8317 10.7075L19.8317 6.4856C19.9619 6.32445 20.0015 6.2046 20 5.99951Z" fill="#CCFBFE"/>
</svg>
