<svg width="40" height="40" viewBox="0 0 40 40" fill="none" xmlns="http://www.w3.org/2000/svg">
<path d="M28.1667 6H11.8333C8.61333 6 6 8.61333 6 11.8333V28.1667C6 31.3867 8.61333 34 11.8333 34H28.1667C31.3867 34 34 31.3867 34 28.1667V11.8333C34 8.61333 31.3867 6 28.1667 6ZM31.6667 28.1667C31.6667 30.0917 30.0917 31.6667 28.1667 31.6667H11.8333C9.90833 31.6667 8.33333 30.0917 8.33333 28.1667V11.8333C8.33333 9.90833 9.90833 8.33333 11.8333 8.33333H28.1667C30.0917 8.33333 31.6667 9.90833 31.6667 11.8333V28.1667Z" fill="black"/>
<path d="M20 11.8333C15.4966 11.8333 11.8333 15.4967 11.8333 20C11.8333 24.5033 15.4966 28.1667 20 28.1667C24.5033 28.1667 28.1666 24.5033 28.1666 20C28.1666 15.4967 24.5033 11.8333 20 11.8333ZM20 25.8333C16.78 25.8333 14.1666 23.22 14.1666 20C14.1666 16.78 16.78 14.1667 20 14.1667C23.22 14.1667 25.8333 16.78 25.8333 20C25.8333 23.22 23.22 25.8333 20 25.8333Z" fill="black"/>
<path d="M28.1667 13C28.811 13 29.3333 12.4777 29.3333 11.8333C29.3333 11.189 28.811 10.6667 28.1667 10.6667C27.5223 10.6667 27 11.189 27 11.8333C27 12.4777 27.5223 13 28.1667 13Z" fill="black"/>
</svg>
