<svg width="40" height="40" viewBox="0 0 40 40" fill="none" xmlns="http://www.w3.org/2000/svg">
<path fill-rule="evenodd" clip-rule="evenodd" d="M20 7.22976C13.4575 7.22976 8.15385 12.7204 8.15385 19.4934C8.15385 26.2664 13.4575 31.7571 20 31.7571C20.0179 31.7571 20.0359 31.7576 20.0538 31.7585C22.2334 31.8713 25.2244 31.1819 27.6378 29.264C28.1097 28.8891 28.7857 28.9811 29.1478 29.4694C29.5099 29.9579 29.4211 30.6577 28.9494 31.0326C26.0942 33.3015 22.5995 34.1161 19.9733 33.9869C12.2536 33.9719 6 27.4888 6 19.4934C6 11.4889 12.268 5 20 5C27.732 5 34 11.4889 34 19.4934C34 19.5178 34 19.5427 34 19.5676C34.0003 20.6403 34.0007 22.2998 33.4795 23.7028C33.2026 24.4481 32.7592 25.1811 32.0454 25.723C31.3246 26.2703 30.4177 26.5544 29.3333 26.5544C28.2489 26.5544 27.342 26.2703 26.6212 25.723C25.9631 25.2235 25.5349 24.5615 25.2552 23.8773C23.9461 25.5141 21.9797 26.5544 20 26.5544C16.2331 26.5544 13.1795 23.3932 13.1795 19.4934C13.1795 15.5938 16.2331 12.4325 20 12.4325C21.8052 12.4325 23.4466 13.1583 24.6667 14.3435V13.5474C24.6667 12.9317 25.1488 12.4325 25.7436 12.4325C26.3383 12.4325 26.8205 12.9317 26.8205 13.5474V19.4934C26.8205 20.6541 26.8334 21.9227 27.1974 22.9025C27.3693 23.3649 27.599 23.7003 27.8948 23.9249C28.1836 24.1441 28.6228 24.3246 29.3333 24.3246C30.0438 24.3246 30.483 24.1441 30.7718 23.9249C31.0676 23.7003 31.2973 23.3649 31.4692 22.9025C31.8332 21.9227 31.8461 20.6541 31.8461 19.4934C31.8461 12.7204 26.5424 7.22976 20 7.22976ZM24.6667 19.4934C24.6667 16.8241 22.5774 14.6623 20 14.6623C17.4227 14.6623 15.3333 16.8253 15.3333 19.4934C15.3333 22.1616 17.4227 24.3246 20 24.3246C22.3135 24.3246 24.6667 22.1258 24.6667 19.4934Z" fill="black"/>
</svg>
