<svg width="127" height="64" viewBox="0 0 127 64" fill="none" xmlns="http://www.w3.org/2000/svg">
<g clip-path="url(#clip0_1_26)">
<path d="M12.3 15.7C12.1 15.8 11.9 16 11.6 16.1C11.3 16.3 11 16.4 10.5 16.6C10.1 16.7 9.6 16.9 9.1 17C8.7 17 8.2 17.1 7.6 17.1C6.4 17.1 5.4 16.9 4.4 16.4C3.5 16 2.7 15.4 2 14.6C1.4 13.9 0.9 13.1 0.5 12.1C0.2 11.1 0 10.1 0 9.00001C0 7.80001 0.2 6.70001 0.6 5.70001C1 4.70001 1.6 3.80001 2.3 3.10001C3 2.30001 3.8 1.70001 4.8 1.30001C5.7 0.900012 6.8 0.700012 7.8 0.700012C8.2 0.700012 8.6 0.700012 9.1 0.800012C9.5 0.900012 9.9 1.00001 10.3 1.10001C10.7 1.20001 11 1.30001 11.3 1.50001C11.6 1.60001 11.8 1.80001 11.9 1.90001C11.8 2.10001 11.7 2.30001 11.6 2.40001C11.5 2.50001 11.5 2.70001 11.4 2.80001C11.3 2.90001 11.2 3.10001 11.2 3.30001C11.1 3.50001 11 3.70001 10.8 4.00001C10.6 3.90001 10.4 3.80001 10.2 3.70001C9.9 3.50001 9.6 3.40001 9.4 3.40001C9.1 3.30001 8.9 3.30001 8.6 3.30001C8.3 3.30001 8.1 3.30001 7.9 3.30001C7.1 3.30001 6.4 3.50001 5.8 3.80001C5.1 4.00001 4.5 4.40001 4.1 4.90001C3.6 5.40001 3.2 6.00001 2.9 6.70001C2.7 7.40001 2.5 8.10001 2.5 8.80001C2.5 9.50001 2.6 10.2 2.9 10.9C3.2 11.5 3.5 12.1 4 12.6C4.5 13.1 5 13.5 5.6 13.8C6.2 14.1 6.9 14.3 7.7 14.3C8.1 14.3 8.6 14.3 9 14.2C9.4 14.1 9.8 14 10.1 13.9C10.4 13.8 10.7 13.7 10.9 13.5C11.1 13.4 11.2 13.3 11.2 13.3L12.3 15.7Z" fill="white"/>
<path d="M23.5 16.9C23.5 16.8 23.4 16.6 23.3 16.3C23.2 16 23.1 15.7 22.9 15.3C22.7 14.9 22.6 14.5 22.4 14C22.2 13.5 22 13.1 21.8 12.6H16.6L15 16.9H12.5C12.6 16.8 12.7 16.4 12.9 15.9C13.1 15.4 13.4 14.7 13.7 14C14 13.2 14.4 12.4 14.7 11.4C15.1 10.5 15.5 9.50001 15.9 8.50001C16.3 7.50001 16.7 6.50001 17.1 5.60001C17.5 4.70001 17.8 3.80001 18.1 3.00001C18.4 2.20001 18.7 1.60001 18.9 1.10001C19.1 0.600006 19.2 0.300006 19.3 0.100006C19.4 0.200006 19.5 0.600006 19.7 1.10001C19.9 1.60001 20.2 2.30001 20.5 3.00001C20.8 3.80001 21.2 4.60001 21.5 5.60001C21.9 6.50001 22.3 7.50001 22.7 8.50001C23.1 9.50001 23.5 10.5 23.9 11.4C24.3 12.3 24.6 13.2 24.9 14C25.2 14.8 25.5 15.4 25.7 15.9C25.9 16.4 26 16.7 26.1 16.9H23.5ZM17.5 10.4H20.9L19.4 6.60001C19.4 6.60001 19.4 6.50001 19.3 6.30001C19.2 6.10001 19.2 6.00001 19.2 5.80001C19.2 5.90001 19.1 6.10001 19.1 6.30001C19.1 6.50001 19 6.60001 19 6.60001L17.5 10.4Z" fill="white"/>
<path d="M36.6 1.69999L35.7 3.89999C35.1 3.69999 34.5 3.49999 34 3.39999C33.4 3.29999 32.9 3.19999 32.4 3.19999C31.6 3.19999 30.9 3.39999 30.4 3.69999C30 4.09999 29.7 4.49999 29.7 5.09999C29.7 5.59999 29.9 5.99999 30.2 6.19999C30.6 6.49999 31 6.79999 31.6 6.99999C32.2 7.19999 32.7 7.49999 33.4 7.69999C34 7.89999 34.6 8.29999 35.2 8.59999C35.8 8.99999 36.2 9.49999 36.6 10.1C37 10.7 37.1 11.4 37.1 12.4C37.1 13.1 37 13.7 36.7 14.3C36.5 14.9 36.1 15.4 35.6 15.8C35.1 16.2 34.5 16.5 33.8 16.8C33.1 17 32.2 17.1 31.2 17.1C30.6 17.1 30 17.1 29.5 17C29 16.9 28.6 16.8 28.2 16.7C27.8 16.6 27.5 16.4 27.2 16.3C26.9 16.1 26.6 16 26.4 15.8L27.5 13.4C28.1 13.7 28.7 14 29.4 14.2C30.1 14.4 30.6 14.5 31.2 14.5C31.4 14.5 31.8 14.5 32.2 14.4C32.6 14.3 33 14.2 33.3 14.1C33.7 13.9 34 13.7 34.3 13.4C34.6 13.1 34.7 12.8 34.7 12.3C34.7 11.8 34.5 11.4 34.2 11C33.8 10.7 33.4 10.4 32.8 10.1C32.2 9.79999 31.7 9.59999 31 9.29999C30.4 9.09999 29.8 8.79999 29.2 8.39999C28.6 8.09999 28.2 7.59999 27.8 7.09999C27.4 6.59999 27.3 5.89999 27.3 5.19999C27.3 4.59999 27.4 4.09999 27.6 3.59999C27.8 3.09999 28.1 2.59999 28.5 2.19999C28.9 1.79999 29.4 1.39999 30.1 1.19999C30.7 0.899988 31.5 0.799988 32.3 0.799988C32.8 0.799988 33.4 0.799988 33.9 0.899988C34.4 0.999988 34.9 1.09999 35.3 1.19999C35.7 1.29999 36 1.39999 36.3 1.49999C36.4 1.69999 36.6 1.69999 36.6 1.69999Z" fill="white"/>
<path d="M48.6 16.9C48.6 16.8 48.5 16.6 48.4 16.3C48.3 16 48.2 15.7 48 15.3C47.8 14.9 47.7 14.5 47.5 14C47.3 13.5 47.1 13.1 46.9 12.6H41.7L40 16.8H37.5C37.6 16.7 37.7 16.3 37.9 15.8C38.1 15.3 38.4 14.6 38.7 13.9C39 13.1 39.4 12.3 39.7 11.3C40.1 10.4 40.5 9.4 40.9 8.4C41.3 7.4 41.7 6.4 42.1 5.5C42.5 4.6 42.8 3.7 43.1 2.9C43.4 2.1 43.7 1.5 43.9 1C44.1 0.5 44.2 0.2 44.3 0C44.4 0.1 44.5 0.5 44.7 1C44.9 1.5 45.2 2.2 45.5 2.9C45.8 3.7 46.2 4.5 46.5 5.5C46.9 6.4 47.3 7.4 47.7 8.4C48.1 9.4 48.5 10.4 48.9 11.3C49.3 12.2 49.6 13.1 49.9 13.9C50.2 14.7 50.5 15.3 50.7 15.8C50.9 16.3 51 16.6 51.1 16.8H48.6V16.9ZM42.6 10.4H46L44.5 6.6C44.5 6.6 44.5 6.5 44.4 6.3C44.3 6.1 44.3 6 44.3 5.8C44.3 5.9 44.2 6.1 44.2 6.3C44.1 6.5 44.1 6.6 44.1 6.6L42.6 10.4Z" fill="white"/>
<path d="M52.8 0.100006C52.9 0.200006 53 0.400006 53.3 0.800006C53.5 1.20001 53.8 1.60001 54.2 2.10001C54.6 2.60001 54.9 3.20001 55.4 3.80001C55.8 4.40001 56.3 5.10001 56.7 5.70001C57.1 6.50001 57.5 7.10001 58 7.70001C58.4 8.30001 58.8 8.90001 59.2 9.40001C59.5 9.90001 59.8 10.3 60.1 10.7C60.3 11 60.5 11.3 60.5 11.4C60.5 11.4 60.7 11.2 60.9 10.8C61.1 10.5 61.4 10.1 61.7 9.60001C62 9.10001 62.4 8.50001 62.8 7.90001C63.2 7.30001 63.7 6.60001 64.1 5.90001C64.6 5.20001 65 4.60001 65.4 3.90001C65.8 3.30001 66.2 2.70001 66.6 2.10001C67 1.60001 67.3 1.10001 67.5 0.800006C67.8 0.500006 68 0.200006 68.1 0.100006V16.9H65.4V8.70001C65.4 8.60001 65.4 8.50001 65.4 8.30001C65.4 8.20001 65.4 8.10001 65.4 8.10001L60.4 15.8C60.3 15.7 60.2 15.5 59.9 15.1C59.6 14.7 59.3 14.2 58.9 13.7C58.5 13.2 58.1 12.6 57.7 11.9C57.3 11.3 56.9 10.7 56.5 10.2C56.1 9.70001 55.8 9.20001 55.6 8.80001C55.4 8.40001 55.3 8.10001 55.3 8.10001C55.3 8.10001 55.3 8.20001 55.3 8.30001C55.3 8.40001 55.3 8.60001 55.3 8.70001V16.9H52.8V0.100006Z" fill="white"/>
<path d="M71.5 16.9V0.799988H81.5V3.19999H74V7.49999H80.7V10.1H74V14.4H81.8V16.9H71.5Z" fill="white"/>
<path d="M97.7 0.800006V17.6C97.6 17.5 97.4 17.2 97.1 16.9C96.8 16.5 96.4 16.1 95.9 15.6C95.4 15.1 94.9 14.6 94.3 14C93.7 13.4 93.1 12.8 92.5 12.2C91.9 11.6 91.3 11 90.7 10.4C90.1 9.80001 89.6 9.30001 89.1 8.80001C88.6 8.30001 88.2 7.90001 87.9 7.50001C87.6 7.20001 87.4 6.90001 87.3 6.80001C87.3 6.80001 87.2 6.70001 87.1 6.60001C87 6.50001 86.9 6.40001 86.9 6.30001L87 7.00001V17H84.5V0.100006C84.6 0.200006 84.8 0.500006 85.1 0.800006C85.4 1.10001 85.8 1.60001 86.3 2.00001C86.8 2.50001 87.3 3.00001 87.9 3.60001C88.5 4.20001 89.1 4.80001 89.7 5.40001C90.3 6.00001 90.9 6.60001 91.5 7.20001C92 7.80001 92.5 8.30001 93 8.80001C93.5 9.30001 93.9 9.70001 94.2 10C94.5 10.3 94.7 10.6 94.8 10.7L95.2 11.3L95.1 10.5V0.800006H97.7Z" fill="white"/>
<path d="M110.2 0.799988V3.39999H106.5V16.9H104V3.39999H100.4V0.799988H110.2Z" fill="white"/>
<path d="M111.5 8.90001C111.5 7.80001 111.7 6.70001 112.1 5.70001C112.5 4.70001 113.1 3.80001 113.8 3.10001C114.5 2.30001 115.3 1.80001 116.2 1.30001C117.1 0.900006 118.1 0.600006 119.2 0.600006C120.2 0.600006 121.2 0.800006 122.2 1.30001C123.1 1.70001 124 2.30001 124.7 3.10001C125.4 3.90001 126 4.70001 126.4 5.70001C126.8 6.70001 127 7.80001 127 8.90001C127 10 126.8 11.1 126.4 12.1C126 13.1 125.4 14 124.7 14.7C124 15.4 123.2 16 122.2 16.5C121.3 16.9 120.3 17.1 119.2 17.1C118.1 17.1 117.1 16.9 116.2 16.5C115.3 16.1 114.5 15.5 113.8 14.7C113.1 14 112.6 13.1 112.1 12.1C111.7 11.1 111.5 10 111.5 8.90001ZM114 8.90001C114 9.70001 114.1 10.4 114.4 11.1C114.7 11.8 115 12.4 115.5 12.9C116 13.4 116.5 13.8 117.2 14.1C117.8 14.4 118.5 14.5 119.2 14.5C119.9 14.5 120.6 14.4 121.2 14.1C121.8 13.8 122.4 13.4 122.8 12.9C123.3 12.4 123.6 11.8 123.9 11.1C124.2 10.4 124.3 9.70001 124.3 8.90001C124.3 8.10001 124.2 7.40001 123.9 6.70001C123.6 6.00001 123.3 5.40001 122.8 4.90001C122.3 4.40001 121.8 4.00001 121.2 3.70001C120.6 3.40001 119.9 3.30001 119.2 3.30001C118.5 3.30001 117.8 3.40001 117.2 3.70001C116.6 4.00001 116 4.40001 115.6 4.90001C115.1 5.40001 114.8 6.00001 114.5 6.70001C114.2 7.40001 114 8.10001 114 8.90001Z" fill="white"/>
<path d="M31.5 59.7C31.1 60 30.5 60.4 29.8 60.8C29.1 61.2 28.2 61.6 27.1 62C26.1 62.4 24.9 62.7 23.6 62.9C22.3 63.2 20.9 63.3 19.5 63.3C16.5 63.3 13.8 62.8 11.4 61.8C9 60.7 7 59.3 5.3 57.5C3.6 55.7 2.3 53.5 1.4 51C0.5 48.5 0 45.9 0 43.1C0 40 0.4 37.2 1.5 34.6C2.5 32 3.9 29.7 5.7 27.8C7.5 25.9 9.6 24.4 11.9 23.3C14.3 22.2 16.8 21.7 19.6 21.6C20.6 21.6 21.7 21.7 22.8 21.8C23.9 22 24.9 22.2 25.8 22.4C26.7 22.6 27.6 22.9 28.3 23.3C29 23.6 29.5 24 29.9 24.3C29.6 24.8 29.4 25.3 29.2 25.6C29 25.9 28.9 26.3 28.7 26.6C28.5 27 28.3 27.4 28.1 27.8C27.9 28.3 27.6 28.9 27.2 29.7C26.8 29.4 26.3 29.2 25.7 28.9C25.1 28.7 24.5 28.5 23.8 28.4C23.2 28.3 22.5 28.2 21.8 28.1C21.1 28 20.5 28 20 28C18 28 16.2 28.4 14.6 29.3C13 30.1 11.5 31.2 10.3 32.5C9 33.9 8.1 35.4 7.4 37.1C6.7 38.8 6.4 40.6 6.4 42.4C6.4 44.2 6.8 45.9 7.4 47.6C8.1 49.3 9 50.8 10.2 52.1C11.4 53.4 12.8 54.4 14.4 55.2C16 56 17.8 56.3 19.8 56.3C20.9 56.3 22 56.1 23 55.9C24 55.6 25 55.4 25.8 55C26.6 54.7 27.3 54.4 27.8 54.1C28.3 53.8 28.6 53.6 28.6 53.5L31.5 59.7Z" fill="white"/>
<path d="M61.6 42.6C61.6 39.7 62.1 37 63.2 34.5C64.2 31.9 65.6 29.7 67.4 27.8C69.2 25.9 71.3 24.4 73.6 23.2C76 22.1 78.5 21.5 81.2 21.5C83.9 21.5 86.4 22.1 88.8 23.2C91.2 24.3 93.3 25.8 95.1 27.8C96.9 29.7 98.3 31.9 99.4 34.5C100.4 37.1 101 39.8 101 42.6C101 45.5 100.5 48.2 99.4 50.7C98.4 53.2 96.9 55.5 95.1 57.3C93.3 59.2 91.2 60.7 88.8 61.8C86.4 62.9 83.9 63.4 81.2 63.4C78.5 63.4 75.9 62.9 73.6 61.8C71.2 60.7 69.1 59.2 67.4 57.3C65.6 55.4 64.2 53.2 63.2 50.7C62.1 48.2 61.6 45.5 61.6 42.6ZM68.1 42.6C68.1 44.6 68.4 46.5 69.1 48.2C69.8 49.9 70.7 51.5 72 52.8C73.2 54.1 74.6 55.1 76.2 55.9C77.8 56.7 79.5 57 81.4 57C83.2 57 84.9 56.6 86.5 55.9C88.1 55.1 89.5 54.1 90.7 52.8C91.9 51.5 92.8 50 93.5 48.2C94.2 46.5 94.5 44.6 94.5 42.6C94.5 40.6 94.1 38.7 93.4 37C92.7 35.3 91.7 33.7 90.5 32.4C89.4 31.1 88 30.1 86.4 29.3C84.8 28.5 83.1 28.2 81.2 28.2C79.4 28.2 77.7 28.6 76 29.3C74.4 30.1 73 31.1 71.8 32.4C70.6 33.7 69.7 35.2 69 37C68.4 38.7 68.1 40.6 68.1 42.6Z" fill="#CCFBFE"/>
<path d="M110.4 56.5V21.1H103.8V63.2H126.8V56.5H110.4Z" fill="white"/>
<path d="M85.3 42.6H122.3" stroke="white" stroke-width="3" stroke-miterlimit="10" stroke-linecap="round"/>
<path d="M20.3 42.6H33.3" stroke="white" stroke-width="3" stroke-miterlimit="10" stroke-linecap="round"/>
<path d="M123.3 42.5L118.3 37.4" stroke="white" stroke-width="3.1763" stroke-miterlimit="10" stroke-linecap="round"/>
<path d="M123.4 42.4L118.3 47.4" stroke="white" stroke-width="3.1763" stroke-miterlimit="10" stroke-linecap="round"/>
<path d="M28.5 42.6C28.5 39.7 29 37 30.1 34.5C31.1 31.9 32.5 29.7 34.3 27.8C36.1 25.9 38.2 24.4 40.5 23.2C42.9 22.1 45.4 21.5 48.1 21.5C50.8 21.5 53.3 22.1 55.7 23.2C58.1 24.3 60.2 25.8 62 27.8C63.8 29.7 65.2 31.9 66.3 34.5C67.3 37.1 67.9 39.8 67.9 42.6C67.9 45.5 67.4 48.2 66.3 50.7C65.3 53.2 63.8 55.5 62 57.3C60.2 59.2 58.1 60.7 55.7 61.8C53.3 62.9 50.8 63.4 48.1 63.4C45.4 63.4 42.8 62.9 40.5 61.8C38.1 60.7 36 59.2 34.3 57.3C32.5 55.4 31.1 53.2 30.1 50.7C29.1 48.2 28.5 45.5 28.5 42.6ZM35 42.6C35 44.6 35.3 46.5 36 48.2C36.7 49.9 37.6 51.5 38.9 52.8C40.1 54.1 41.5 55.1 43.1 55.9C44.7 56.7 46.4 57 48.3 57C50.1 57 51.8 56.6 53.4 55.9C55 55.1 56.4 54.1 57.6 52.8C58.8 51.5 59.7 50 60.4 48.2C61.1 46.5 61.4 44.6 61.4 42.6C61.4 40.6 61 38.7 60.3 37C59.6 35.3 58.6 33.7 57.4 32.4C56.4 31.1 55 30.1 53.4 29.3C51.8 28.5 50.1 28.2 48.2 28.2C46.4 28.2 44.7 28.6 43 29.3C41.4 30.1 40 31.1 38.8 32.4C37.6 33.7 36.7 35.2 36 37C35.4 38.7 35 40.6 35 42.6Z" fill="#CCFBFE"/>
</g>
<defs>
<clipPath id="clip0_1_26">
<rect width="126.9" height="63.4" fill="white"/>
</clipPath>
</defs>
</svg>
