<svg width="140" height="140" viewBox="0 0 140 140" fill="none" xmlns="http://www.w3.org/2000/svg">
<path d="M112 65.6217C112 42.5027 93.189 23.6932 70.0685 23.6932C46.948 23.6932 28.14 42.5027 28.14 65.6217C28.14 78.25 33.7192 90.003 43.4556 98.0081L42.9791 110.161C42.9193 111.739 43.5034 113.249 44.6252 114.414C45.7829 115.617 47.4006 116.307 49.0632 116.307C50.7287 116.307 52.3495 115.617 53.5086 114.411C54.629 113.246 55.213 111.736 55.1518 110.158L54.9382 104.736C59.76 106.606 64.8374 107.556 70.0685 107.556C75.2145 107.556 80.2187 106.635 84.9793 104.821L84.7687 110.157C84.7044 111.733 85.2855 113.241 86.4058 114.407C87.565 115.615 89.1857 116.307 90.8528 116.307C92.5168 116.307 94.1361 115.617 95.2952 114.411C96.4171 113.246 97.0011 111.736 96.9414 110.158L96.4708 98.1799C106.342 90.1688 112 78.3531 112 65.6217ZM49.0632 76.6218C44.7104 76.6218 41.0342 70.8947 41.0342 64.1145C41.0342 57.3373 44.7104 51.6117 49.0632 51.6117C53.416 51.6117 57.0922 57.3373 57.0922 64.1145C57.0922 70.8932 53.416 76.6218 49.0632 76.6218ZM51.3546 112.341C50.1611 113.582 47.9742 113.587 46.7777 112.342C46.225 111.769 45.9367 111.034 45.9651 110.276L47.1781 79.3659C47.792 79.5153 48.4194 79.6094 49.0632 79.6094C49.707 79.6094 50.3344 79.5153 50.9483 79.3659L52.1657 110.276C52.1956 111.034 51.9073 111.767 51.3546 112.341ZM93.1412 112.339C91.9432 113.587 89.7563 113.584 88.5598 112.338C88.0086 111.764 87.7218 111.032 87.7532 110.276L89.0931 76.1991C89.6622 76.3111 90.2493 76.3724 90.8513 76.3724C91.4548 76.3724 92.0433 76.3096 92.6139 76.1976L93.9523 110.273C93.9837 111.032 93.6939 111.766 93.1412 112.339ZM96.3185 94.3723L95.5596 75.0519C98.2111 73.4491 99.9931 70.5482 99.9931 67.2305V53.7971C99.9931 52.9725 99.3239 52.3033 98.4994 52.3033C97.6748 52.3033 97.0056 52.9725 97.0056 53.7971V67.2305C97.0056 70.106 95.0159 72.508 92.3465 73.1787V53.7986C92.3465 52.974 91.6773 52.3048 90.8528 52.3048C90.0282 52.3048 89.359 52.974 89.359 53.7986V73.1817C86.6882 72.5095 84.6985 70.1075 84.6985 67.232V53.7986C84.6985 52.974 84.0293 52.3048 83.2047 52.3048C82.3801 52.3048 81.7109 52.974 81.7109 53.7986V67.232C81.7109 70.5512 83.496 73.455 86.1504 75.0564L85.1092 101.542C80.3322 103.542 75.2803 104.567 70.07 104.567C64.7701 104.567 59.645 103.51 54.8097 101.447L53.8866 78.0245C57.5478 75.503 60.0812 70.2225 60.0812 64.113C60.0812 55.5717 55.1383 48.6227 49.0647 48.6227C42.991 48.6227 38.0482 55.5717 38.0482 64.113C38.0482 70.2225 40.5816 75.503 44.2428 78.0245L43.6095 94.1766C35.6477 86.8138 31.1275 76.574 31.1275 65.6217C31.1275 44.1504 48.5971 26.6808 70.0685 26.6808C91.5429 26.6808 109.012 44.1504 109.012 65.6217C109.012 76.6801 104.415 86.9931 96.3185 94.3723Z" fill="black"/>
<path d="M70.1028 40.5309C65.2765 40.5309 60.589 41.9067 56.5454 44.5118C55.8523 44.9585 55.6522 45.8831 56.0988 46.5762C56.5454 47.2693 57.4701 47.4695 58.1632 47.0228C61.7228 44.7299 65.8501 43.5185 70.1028 43.5185C75.9315 43.5185 81.4316 45.7681 85.5932 49.8535C85.8845 50.1388 86.2624 50.2822 86.6403 50.2822C87.0272 50.2822 87.4141 50.1329 87.7054 49.8356C88.2835 49.2471 88.2745 48.3015 87.686 47.7234C82.9627 43.0853 76.7187 40.5309 70.1028 40.5309Z" fill="black"/>
<path d="M70.1029 87.7236C66.5821 87.7236 63.2122 86.9184 60.0872 85.3291C59.3523 84.9571 58.453 85.2499 58.0781 85.9833C57.7046 86.7198 57.9974 87.6175 58.7324 87.9924C62.2308 89.77 66.1623 90.7096 70.1014 90.7096C74.5947 90.7096 79.0028 89.5086 82.8492 87.2351C83.5602 86.8153 83.7948 85.8997 83.375 85.1886C82.9538 84.4776 82.0396 84.2416 81.3285 84.6628C77.9452 86.666 74.0629 87.7236 70.1029 87.7236Z" fill="black"/>
</svg>
