<!-- Generator: Adobe Illustrator 18.0.0, SVG Export Plug-In  -->
<svg version="1.1"
	 xmlns="http://www.w3.org/2000/svg" xmlns:xlink="http://www.w3.org/1999/xlink" xmlns:a="http://ns.adobe.com/AdobeSVGViewerExtensions/3.0/"
	 x="0px" y="0px" width="148.7px" height="148.7px" viewBox="0 0 148.7 148.7" enable-background="new 0 0 148.7 148.7"
	 xml:space="preserve">
<defs>
</defs>
<g>
	<g>
		
			<circle opacity="0.4" fill="#2B956E" stroke="#FFFFFF" stroke-width="1.6705" stroke-miterlimit="10" cx="74.3" cy="74.3" r="73.5"/>
		<circle fill="none" stroke="#FFFFFF" stroke-width="1.6705" stroke-miterlimit="10" cx="74.3" cy="74.3" r="57.1"/>
		<circle fill="none" stroke="#FFFFFF" stroke-width="1.6705" stroke-miterlimit="10" cx="74.3" cy="74.3" r="73.5"/>
	</g>
	<g>
		<circle fill="#30343F" cx="69.3" cy="96.2" r="5"/>
		<path fill="#FFFFFF" d="M76,87.9c-1.1-1-2.3-1.8-3.6-2.2l-2.8-11l33.5-9.4l3.6,14L76,87.9L76,87.9z M65.3,58.2l22.4-6.3l3.6,14
			l-22.4,6.3L65.3,58.2L65.3,58.2z M66.3,85.4c-0.6,0.2-1.2,0.4-1.8,0.7l-9.9-38.4H51c-0.4,0.8-1.2,1.4-2.1,1.4h-4.6
			C43,49.1,42,48,42,46.7c0-1.3,1-2.4,2.3-2.4h4.6c0.8,0,1.4,0.4,1.8,1h7.1v0.1l0.1,0l10.2,39.7C67.6,85.2,66.9,85.3,66.3,85.4
			L66.3,85.4z M66.9,87.8c4.3-1.2,8.8,1.5,9.9,6c1.2,4.5-1.4,9.2-5.7,10.4c-4.3,1.2-8.8-1.5-9.9-6C60,93.6,62.6,89,66.9,87.8
			L66.9,87.8z M65.7,97c0.5,1.9,2.4,3.1,4.3,2.6c1.9-0.5,3-2.5,2.5-4.4c-0.5-1.9-2.4-3.1-4.3-2.6C66.3,93.1,65.2,95.1,65.7,97
			L65.7,97z M106.4,87.5l-27,7.6c-0.1-0.6-0.1-1.3-0.3-1.9c-0.2-0.6-0.4-1.3-0.7-1.8l26.9-7.5L106.4,87.5L106.4,87.5z"/>
	</g>
</g>
</svg>