<!-- Generator: Adobe Illustrator 18.0.0, SVG Export Plug-In  -->
<svg version="1.1"
	 xmlns="http://www.w3.org/2000/svg" xmlns:xlink="http://www.w3.org/1999/xlink" xmlns:a="http://ns.adobe.com/AdobeSVGViewerExtensions/3.0/"
	 x="0px" y="0px" width="148.7px" height="148.7px" viewBox="0 0 148.7 148.7" enable-background="new 0 0 148.7 148.7"
	 xml:space="preserve">
<defs>
</defs>
<g>
	<g>
		
			<circle opacity="0.4" fill="#2B956E" stroke="#FFFFFF" stroke-width="1.6705" stroke-miterlimit="10" cx="74.3" cy="74.3" r="73.5"/>
		<circle fill="none" stroke="#FFFFFF" stroke-width="1.6705" stroke-miterlimit="10" cx="74.3" cy="74.3" r="57.1"/>
	</g>
	<g>
		<path fill="#30343F" d="M104.2,86.9H38.3c-1.3,0-2.4-1.1-2.4-2.4V62.9c0-1.3,1.1-2.4,2.4-2.4h65.9c1.3,0,2.4,1.1,2.4,2.4v21.5
			C106.6,85.8,105.5,86.9,104.2,86.9z"/>
		<path fill="#FFFFFF" d="M113.8,81v4.7c0,3.7-3,6.8-6.8,6.8H98l0,2.1H45.9l0-2.1h-9c-3.7,0-6.8-3-6.8-6.8V60.8c0-3.7,3-6.8,6.8-6.8
			h70c3.7,0,6.8,3,6.8,6.8v4.6l4.5,0l0.1,15.6H113.8L113.8,81z M111.6,60.8c0-2.5-2-4.5-4.5-4.5H37c-2.5,0-4.5,2-4.5,4.5v24.9
			c0,2.5,2,4.5,4.5,4.5h70c2.5,0,4.5-2,4.5-4.5V60.8L111.6,60.8z M107.1,88H37c-1.2,0-2.3-1-2.3-2.3V60.9c0-1.2,1-2.3,2.3-2.3h70
			c1.2,0,2.3,1,2.3,2.3v24.9C109.3,87,108.3,88,107.1,88L107.1,88z M102.6,74.2l-0.6-0.7l-1.2,1.1l-0.4,4.5l1.5,1.7L102.6,74.2
			L102.6,74.2z M101.8,73.2l-0.8-0.8h-5.9l-0.9,0.8l0.7,0.8h5.9L101.8,73.2L101.8,73.2z M88,74.2l-0.6-0.7l-1.2,1.1l-0.4,4.5
			l1.5,1.7L88,74.2L88,74.2z M87.1,73.2l-0.8-0.8h-5.9l-0.9,0.8l0.7,0.8h5.9L87.1,73.2L87.1,73.2z M65.4,74.2l-0.6-0.7l-1.2,1.1
			l-0.4,4.5l1.5,1.7L65.4,74.2L65.4,74.2z M64.6,73.2l-0.8-0.8h-5.9L57,73.2l0.7,0.8h5.9L64.6,73.2L64.6,73.2z M64.5,81.1L63,79.4
			h-5.5l-1.9,1.7H64.5L64.5,81.1z M50.7,74.2l-0.6-0.7L49,74.6l-0.4,4.5l1.5,1.7L50.7,74.2L50.7,74.2z M49.8,81.1l-1.5-1.7h-5.5
			L41,81.1H49.8L49.8,81.1z M40.7,80.8l1.9-1.7l0.4-4.5l-1-1.1l-0.7,0.7L40.7,80.8L40.7,80.8z M41.4,72.3l0.6,0.6l1.1-1.1l0.4-4.5
			L42,65.6L41.4,72.3L41.4,72.3z M42.3,65.3l1.5,1.7h5.5l1.8-1.7H42.3L42.3,65.3z M49.6,67.3l-0.4,4.5l1,1.1l0.7-0.6l0.6-6.6
			L49.6,67.3L49.6,67.3z M55.3,80.8l1.8-1.7l0.4-4.5l-1-1.1l-0.7,0.7L55.3,80.8L55.3,80.8z M56.1,72.3l0.6,0.6l1.1-1.1l0.4-4.5
			l-1.5-1.7L56.1,72.3L56.1,72.3z M57,65.3l1.5,1.7H64l1.8-1.7H57L57,65.3z M70.5,81.1h1.7l0.2-1.7h-1.7L70.5,81.1L70.5,81.1z
			 M71.7,68l-0.2,1.7h1.7l0.2-1.7H71.7L71.7,68z M87,81.1l-1.5-1.7H80l-1.8,1.7H87L87,81.1z M78.7,72.3l0.6,0.6l1.2-1.1l0.4-4.5
			l-1.5-1.7L78.7,72.3L78.7,72.3z M79.6,65.3l1.5,1.7h5.5l1.8-1.7H79.6L79.6,65.3z M101.7,81.1l-1.5-1.7h-5.5l-1.8,1.7H101.7
			L101.7,81.1z M93.3,72.3l0.6,0.6l1.2-1.1l0.4-4.5l-1.5-1.7L93.3,72.3L93.3,72.3z M94.3,65.3l1.5,1.7h5.5l1.8-1.7H94.3L94.3,65.3z
			 M101.6,67.3l-0.4,4.5l1,1.1l0.7-0.6l0.6-6.6L101.6,67.3L101.6,67.3z"/>
	</g>
</g>
</svg>