<svg width="32" height="32" viewBox="0 0 32 32" fill="none" xmlns="http://www.w3.org/2000/svg">
<rect width="32" height="32" fill="white"/>
<path fill-rule="evenodd" clip-rule="evenodd" d="M4.75256 18.1124C4.48023 17.454 4.37129 16.7407 4.37129 16.0274C4.37129 15.3142 4.48023 14.6009 4.75256 13.9974C5.0249 13.339 5.3517 12.7903 5.84191 12.2965C6.27764 11.8027 6.82232 11.4186 7.47592 11.1443C8.07506 10.87 8.78313 10.7054 9.4912 10.7054C10.1993 10.7054 10.9073 10.8151 11.452 11.0894C12.0512 11.3638 12.5958 11.7478 13.086 12.2416C13.5762 12.7354 13.9575 13.2841 14.2298 13.9425C14.5022 14.6009 14.6656 15.3142 14.6656 16.0274C14.6656 16.7956 14.5566 17.454 14.2843 18.1124C14.012 18.7708 13.6852 19.3194 13.195 19.8132C12.7592 20.307 12.2146 20.6911 11.561 20.9654C10.9073 21.2398 10.2537 21.4044 9.54567 21.4044C8.8376 21.4044 8.18399 21.2398 7.53039 20.9654C6.93125 20.6911 6.38658 20.307 5.89637 19.8132C5.40617 19.3194 5.0249 18.7708 4.75256 18.1124ZM2.41048 13.0098C2.02921 13.9425 1.81134 14.985 1.81134 16.0274C1.81134 17.1248 1.97474 18.1124 2.41048 19.0451C2.79175 19.9778 3.33642 20.8008 4.04449 21.5141C4.75257 22.2274 5.56957 22.776 6.49551 23.1601C7.42145 23.5442 8.40186 23.7636 9.4912 23.7636C10.5261 23.7636 11.561 23.5442 12.4869 23.1601C13.4128 22.776 14.2298 22.2274 14.9379 21.5141C15.327 21.1222 15.6832 20.6971 15.9884 20.2389C16.2788 20.6971 16.6186 21.1222 17.0077 21.5141C17.7157 22.2274 18.5327 22.776 19.4587 23.1601C20.3846 23.5442 21.365 23.7636 22.4544 23.7636C23.4892 23.7636 24.5241 23.5442 25.4501 23.1601C26.376 22.776 27.193 22.2274 27.9011 21.5141C28.6092 20.8008 29.2083 19.9778 29.5896 19.0451C29.9708 18.1124 30.1887 17.1248 30.1887 16.0274C30.1887 14.985 29.9708 13.9425 29.5896 13.0098C29.1538 12.077 28.6092 11.2541 27.9011 10.5408C27.193 9.82752 26.376 9.27885 25.4501 8.83992C24.5241 8.45586 23.4892 8.23639 22.4544 8.23639C21.365 8.23639 20.3846 8.40099 19.4587 8.83992C18.5327 9.27885 17.7157 9.82752 17.0077 10.5408C16.6404 10.9416 16.2903 11.377 15.9864 11.8471C15.6821 11.377 15.3358 10.9416 14.9379 10.5408C14.2298 9.82752 13.4128 9.27885 12.4869 8.83992C11.561 8.45586 10.5261 8.23639 9.4912 8.23639C8.40186 8.23639 7.42145 8.40099 6.49551 8.83992C5.56957 9.27885 4.75257 9.82752 4.04449 10.5408C3.39089 11.2541 2.79175 12.077 2.41048 13.0098ZM17.6613 18.1124C17.3889 17.454 17.28 16.7407 17.28 16.0274C17.28 15.3142 17.4434 14.6009 17.6068 13.9425C17.8791 13.2841 18.2059 12.7354 18.6961 12.2416C19.1319 11.7478 19.6765 11.3638 20.3301 11.0894C20.9293 10.8151 21.6374 10.6505 22.3454 10.6505C23.0535 10.6505 23.7071 10.8151 24.3607 11.0894C24.9599 11.3638 25.5045 11.7478 25.9947 12.2416C26.4849 12.7354 26.8662 13.2841 27.1385 13.9425C27.4109 14.6009 27.5743 15.3142 27.5743 16.0274C27.5743 16.7956 27.4653 17.454 27.193 18.1124C26.9207 18.7708 26.5939 19.3194 26.1037 19.8132C25.6679 20.307 25.1233 20.6911 24.4697 20.9654C23.816 21.2398 23.1624 21.4044 22.4544 21.4044C21.7463 21.4044 21.0927 21.2398 20.4391 20.9654C19.8399 20.6911 19.2953 20.307 18.8051 19.8132C18.3149 19.3194 17.9336 18.7708 17.6613 18.1124Z" fill="#30343F"/>
</svg>
